<svg width="64" height="28" viewBox="0 0 64 28" fill="none" xmlns="http://www.w3.org/2000/svg">
<path d="M3.21957 26.9718C2.34413 27.6454 1.08842 27.4817 0.41487 26.6063C-0.258683 25.7309 -0.0950179 24.4751 0.780425 23.8016L3.21957 26.9718ZM32 2.30517L30.7804 0.720043C31.4994 0.166883 32.5006 0.166883 33.2196 0.720043L32 2.30517ZM63.2196 23.8016C64.095 24.4751 64.2587 25.7309 63.5851 26.6063C62.9116 27.4817 61.6559 27.6454 60.7804 26.9718L63.2196 23.8016ZM0.780425 23.8016L30.7804 0.720043L33.2196 3.8903L3.21957 26.9718L0.780425 23.8016ZM33.2196 0.720043L63.2196 23.8016L60.7804 26.9718L30.7804 3.8903L33.2196 0.720043Z" fill="#52C600"/>
</svg>
