<svg width="64" height="27" viewBox="0 0 64 27" fill="none" xmlns="http://www.w3.org/2000/svg">
<path d="M3.21686 0.412787C2.34027 -0.259268 1.08484 -0.0934565 0.412787 0.783137C-0.259268 1.65973 -0.0934565 2.91516 0.783137 3.58721L3.21686 0.412787ZM32 25L30.7831 26.5872C31.501 27.1376 32.499 27.1376 33.2169 26.5872L32 25ZM63.2169 3.58721C64.0935 2.91516 64.2593 1.65973 63.5872 0.783137C62.9152 -0.0934565 61.6597 -0.259268 60.7831 0.412787L63.2169 3.58721ZM0.783137 3.58721L30.7831 26.5872L33.2169 23.4128L3.21686 0.412787L0.783137 3.58721ZM33.2169 26.5872L63.2169 3.58721L60.7831 0.412787L30.7831 23.4128L33.2169 26.5872Z" fill="#52C600"/>
</svg>
