<svg width="81" height="61" viewBox="0 0 81 61" fill="none" xmlns="http://www.w3.org/2000/svg">
<path d="M21.2718 18.7695C26.7657 18.7695 31.8184 20.5374 36.0145 23.4618H40.041H51.7718V16.4233C51.7718 15.1265 52.8212 14.0771 54.118 14.0771C55.4148 14.0771 56.4641 15.1265 56.4641 16.4233V34.0928C56.4641 35.3896 55.4148 36.439 54.118 36.439C52.8212 36.439 51.7718 35.3896 51.7718 34.0928V28.1525H41.1403C44.2963 31.9741 46.424 36.6975 46.9512 41.9859C47.0795 43.2759 46.1379 44.4261 44.8502 44.5544C44.7699 44.5612 44.692 44.5658 44.6141 44.5658C43.4228 44.5658 42.4031 43.6631 42.2818 42.4533C42.0096 39.7231 41.2269 37.1655 40.041 34.8624C36.5238 28.0307 29.4212 23.4618 21.2718 23.4618C19.975 23.4618 18.9256 22.4124 18.9256 21.1156C18.9256 19.8188 19.975 18.7695 21.2718 18.7695Z" fill="#97DE3D"/>
<path d="M21.2718 23.4614C19.975 23.4614 18.9256 22.412 18.9256 21.1152C18.9256 19.8184 19.975 18.769 21.2718 18.769C26.7657 18.769 31.8184 20.537 36.0145 23.4614H40.041V34.862C36.5238 28.0303 29.4212 23.4614 21.2718 23.4614Z" fill="#59C36A"/>
<path d="M17.9816 32.9149C19.1571 32.9149 20.1697 32.035 20.3095 30.8413L22.635 10.9174C23.0475 7.3685 26.0533 4.69231 29.6253 4.69231H35.3487C36.6455 4.69231 37.6948 3.64296 37.6948 2.34616C37.6948 1.04936 36.6455 0 35.3487 0H29.6253C23.6706 0 18.662 4.46098 17.9748 10.3744L15.6492 30.2961C15.498 31.5836 16.4214 32.7498 17.7067 32.8989C17.8007 32.9103 17.8923 32.9149 17.9816 32.9149Z" fill="#59C36A"/>
<path d="M44.7332 18.7695H58.8101C60.1069 18.7695 61.1562 17.7201 61.1562 16.4233C61.1562 15.1265 60.1069 14.0771 58.8101 14.0771H44.7332C43.4364 14.0771 42.387 15.1265 42.387 16.4233C42.387 17.7201 43.4364 18.7695 44.7332 18.7695Z" fill="#3E3E3E"/>
<path d="M16.5793 28.1538C25.6341 28.1538 33.0024 35.5221 33.0024 44.5769C33.0024 53.6317 25.6341 61 16.5793 61C7.52459 61 -0.000160217 53.6317 -0.000160217 44.5769C-0.000160217 35.5221 7.52459 28.1538 16.5793 28.1538Z" fill="#525252"/>
<path d="M4.69208 44.577C4.69208 51.0557 10.1006 56.3078 16.5793 56.3078C23.058 56.3078 28.3101 51.0557 28.3101 44.577C28.3101 38.0983 23.058 32.8462 16.5793 32.8462C10.1006 32.8462 4.69208 38.0983 4.69208 44.577Z" fill="white"/>
<path d="M63.5025 28.1538C72.5573 28.1538 80.082 35.5221 80.082 44.5769C80.082 53.6317 72.5573 61 63.5025 61C54.4478 61 47.0794 53.6317 47.0794 44.5769C47.0794 35.5221 54.4478 28.1538 63.5025 28.1538Z" fill="#3E3E3E"/>
<path d="M51.7717 44.577C51.7717 51.0557 57.0238 56.3078 63.5025 56.3078C69.9811 56.3078 75.3896 51.0557 75.3896 44.577C75.3896 38.0983 69.9811 32.8462 63.5025 32.8462C57.0238 32.8462 51.7717 38.0983 51.7717 44.577Z" fill="white"/>
<path d="M16.5792 51.6155C20.4604 51.6155 23.6177 48.4582 23.6177 44.577C23.6177 40.6959 20.4604 37.5386 16.5792 37.5386C12.698 37.5386 9.38433 40.6959 9.38433 44.577C9.38433 48.4582 12.698 51.6155 16.5792 51.6155Z" fill="#525252"/>
<path d="M40.0409 40.6039C40.7415 40.188 41.5135 39.8848 42.3871 39.8848H61.1563C63.7479 39.8848 65.8486 41.9855 65.8486 44.5771C65.8486 47.1686 63.7479 49.2694 61.1563 49.2694H42.3871C41.5135 49.2694 40.7415 48.9661 40.0409 48.5502C38.6636 47.7328 37.6948 46.2951 37.6948 44.5771C37.6948 42.8591 38.6636 41.4213 40.0409 40.6039Z" fill="#D9E7EC"/>
<path d="M37.6949 44.5771C37.6949 42.8591 38.6637 41.4214 40.041 40.604V48.5503C38.6637 47.7329 37.6949 46.2952 37.6949 44.5771Z" fill="#C5D3DD"/>
</svg>
