<svg width="22" height="23" viewBox="0 0 22 23" fill="none" xmlns="http://www.w3.org/2000/svg">
<path fill-rule="evenodd" clip-rule="evenodd" d="M20.7418 3.10948C21.1259 2.71263 21.1156 2.07955 20.7187 1.69546C20.3219 1.31137 19.6888 1.32171 19.3047 1.71857L10.8161 10.4892L2.8119 1.13344C2.45286 0.713785 1.87075 0.713785 1.51172 1.13344C1.15268 1.5531 1.15268 2.2335 1.51171 2.65315L9.43586 11.9153L0.792909 20.8454C0.408818 21.2423 0.419164 21.8754 0.816017 22.2594C1.21287 22.6435 1.84595 22.6332 2.23004 22.2363L10.7418 13.4418L18.5858 22.6102C18.9448 23.0298 19.5269 23.0298 19.8859 22.6102C20.245 22.1905 20.245 21.5101 19.8859 21.0905L12.1221 12.0156L20.7418 3.10948Z" fill="#52C600"/>
</svg>
