<svg width="72" height="66" viewBox="0 0 72 66" fill="none" xmlns="http://www.w3.org/2000/svg">
<path d="M20.2199 10.5634L21.7497 3.66574H27.9656V1.22192H20.7722C20.494 1.22169 20.2241 1.31639 20.007 1.49035C19.79 1.66431 19.6388 1.90713 19.5784 2.17868L17.8335 10.0331L20.2199 10.5634Z" fill="#7A8181"/>
<path d="M46.4864 58.7533L48.9228 58.5504C48.8923 58.1839 48.8764 57.8087 48.8764 57.4299C48.8762 54.9911 49.5395 52.5982 50.7953 50.5075C52.0511 48.4168 53.8521 46.7072 56.0052 45.5619C58.1584 44.4166 60.5826 43.8787 63.0182 44.0058C65.4537 44.133 67.8087 44.9204 69.8309 46.2837L71.1995 44.2602C68.8098 42.6485 66.0266 41.7174 63.1481 41.5667C60.2697 41.4159 57.4045 42.0512 54.8595 43.4045C52.3146 44.7578 50.1858 46.778 48.7013 49.2488C47.2168 51.7195 46.4326 54.5476 46.4326 57.4299C46.4326 57.8747 46.4509 58.3171 46.4864 58.7533Z" fill="#97FF13"/>
<path d="M8.55333 65.9832C3.82944 65.9832 -3.43323e-05 62.1537 -3.43323e-05 57.4298C-3.43323e-05 52.7059 3.82944 48.8765 8.55333 48.8765C13.2772 48.8765 17.1067 52.7059 17.1067 57.4298C17.1067 62.1537 13.2772 65.9832 8.55333 65.9832Z" fill="#3E3E3E"/>
<path d="M7.33155 64.7611C8.94914 64.7605 10.5334 64.3012 11.9005 63.4365C13.2676 62.5719 14.3615 61.3373 15.0552 59.876C15.7489 58.4147 16.0141 56.7867 15.8199 55.1808C15.6257 53.5749 14.9801 52.057 13.958 50.8032C14.8886 51.5579 15.6502 52.4997 16.1936 53.5675C16.737 54.6354 17.0499 55.8055 17.1122 57.002C17.1745 58.1985 16.9847 59.3948 16.5551 60.5133C16.1255 61.6318 15.4658 62.6475 14.6186 63.4947C13.7713 64.3419 12.7556 65.0017 11.6371 65.4313C10.5186 65.8609 9.32234 66.0507 8.12582 65.9884C6.92929 65.9261 5.7592 65.6131 4.69135 65.0698C3.62351 64.5264 2.68173 63.7647 1.92705 62.8341C3.45124 64.0826 5.36133 64.7636 7.33155 64.7611Z" fill="#58A066"/>
<path d="M8.55353 62.3175C5.85416 62.3175 3.66589 60.1292 3.66589 57.4299C3.66589 54.7305 5.85416 52.5422 8.55353 52.5422C11.2529 52.5422 13.4412 54.7305 13.4412 57.4299C13.4412 60.1292 11.2529 62.3175 8.55353 62.3175Z" fill="#FFE8AE"/>
<path d="M62.3175 65.9832C57.5936 65.9832 53.7641 62.1537 53.7641 57.4298C53.7641 52.7059 57.5936 48.8765 62.3175 48.8765C67.0414 48.8765 70.8708 52.7059 70.8708 57.4298C70.8708 62.1537 67.0414 65.9832 62.3175 65.9832Z" fill="#3E3E3E"/>
<path d="M61.0955 64.7611C62.7131 64.7605 64.2973 64.3012 65.6644 63.4365C67.0315 62.5719 68.1254 61.3373 68.8191 59.876C69.5129 58.4147 69.778 56.7867 69.5838 55.1808C69.3896 53.5749 68.744 52.057 67.7219 50.8032C68.6525 51.5579 69.4141 52.4997 69.9575 53.5675C70.5009 54.6354 70.8139 55.8055 70.8761 57.002C70.9384 58.1985 70.7486 59.3948 70.319 60.5133C69.8895 61.6318 69.2297 62.6475 68.3825 63.4947C67.5353 64.3419 66.5195 65.0017 65.401 65.4313C64.2825 65.8609 63.0863 66.0507 61.8897 65.9884C60.6932 65.9261 59.5231 65.6131 58.4553 65.0698C57.3874 64.5264 56.4456 63.7647 55.691 62.8341C57.2152 64.0826 59.1252 64.7636 61.0955 64.7611Z" fill="#58A066"/>
<path d="M62.3174 62.3175C59.6181 62.3175 57.4298 60.1292 57.4298 57.4299C57.4298 54.7305 59.6181 52.5422 62.3174 52.5422C65.0168 52.5422 67.2051 54.7305 67.2051 57.4299C67.2051 60.1292 65.0168 62.3175 62.3174 62.3175Z" fill="#FFE8AE"/>
<path d="M6.15971 56.9408L16.618 8.35034L21.458 9.03583L10.9814 57.6556H10.9691C10.9491 57.9941 10.8589 58.3248 10.7041 58.6266C10.5493 58.9284 10.3334 59.1946 10.0702 59.4084C9.80688 59.6222 9.50199 59.7789 9.17489 59.8684C8.84778 59.958 8.50561 59.9784 8.17016 59.9286C7.8347 59.8787 7.5133 59.7595 7.2264 59.5787C6.9395 59.3978 6.69338 59.1592 6.5037 58.8781C6.31403 58.597 6.18495 58.2794 6.12467 57.9457C6.0644 57.6119 6.07424 57.2693 6.15359 56.9395L6.15971 56.9408Z" fill="#97FF13"/>
<path d="M9.06174 57.6531H9.07396L19.5506 9.04194L16.5679 8.61916L16.618 8.35034L21.458 9.03583L10.9814 57.6556H10.9691C10.9355 58.039 10.8114 58.4089 10.607 58.735C10.4026 59.0611 10.1238 59.334 9.79342 59.5314C9.46305 59.7288 9.09056 59.845 8.70656 59.8704C8.32255 59.8959 7.93799 59.8299 7.58445 59.6778C7.99055 59.5052 8.34232 59.2258 8.60242 58.8693C8.86252 58.5128 9.02124 58.0926 9.06174 57.6531Z" fill="#52C700"/>
<path d="M34.2134 56.2078L14.6628 36.6573L10.8041 35.3706L9.24856 42.5909L13.4409 43.9887L25.66 56.2078H34.2134Z" fill="#3E3E3E"/>
<path d="M15.1895 42.8314L27.4086 55.0505H33.0562L34.2134 56.2077H25.66L13.4409 43.9886L9.24856 42.5907L9.59925 40.968L15.1895 42.8314Z" fill="#58A066"/>
<path d="M62.3174 54.9858H24.4382V56.1784C24.4382 57.1584 24.8275 58.0983 25.5205 58.7912C26.2134 59.4842 27.1533 59.8735 28.1333 59.8735H62.3174C62.9656 59.8735 63.5871 59.616 64.0455 59.1577C64.5038 58.6994 64.7612 58.0778 64.7612 57.4297C64.7612 56.7815 64.5038 56.1599 64.0455 55.7016C63.5871 55.2433 62.9656 54.9858 62.3174 54.9858Z" fill="#3E3E3E"/>
<path d="M28.1332 57.4297H62.3173C62.7446 57.4285 63.164 57.3149 63.5335 57.1005C63.903 56.886 64.2097 56.5781 64.4227 56.2077C64.6415 56.5777 64.7582 56.9991 64.7609 57.4289C64.7637 57.8586 64.6523 58.2815 64.4383 58.6542C64.2242 59.0269 63.9151 59.3361 63.5425 59.5503C63.1699 59.7645 62.7471 59.876 62.3173 59.8735H28.1332C27.1532 59.8735 26.2134 59.4842 25.5204 58.7912C24.8274 58.0983 24.4381 57.1584 24.4381 56.1784V54.9858H24.6703C24.9257 55.7001 25.3953 56.3182 26.0151 56.7556C26.6349 57.193 27.3746 57.4284 28.1332 57.4297Z" fill="#58A066"/>
<path d="M29.3258 0H36.6573C38.0069 0 39.1011 1.09413 39.1011 2.44382C39.1011 3.7935 38.0069 4.88763 36.6573 4.88763H29.3258C27.9761 4.88763 26.882 3.7935 26.882 2.44382C26.882 1.09413 27.9761 0 29.3258 0Z" fill="#3E3E3E"/>
<path d="M36.6573 4.88763C35.3076 4.88763 34.2134 3.7935 34.2134 2.44382C34.2134 1.09413 35.3076 0 36.6573 0C38.0069 0 39.1011 1.09413 39.1011 2.44382C39.1011 3.7935 38.0069 4.88763 36.6573 4.88763Z" fill="#52C700"/>
</svg>
