<svg width="180" height="40" viewBox="0 0 180 40" fill="none" xmlns="http://www.w3.org/2000/svg">
<path fill-rule="evenodd" clip-rule="evenodd" d="M108.994 3.85072C108.982 3.46974 109.049 3.09042 109.191 2.73719C109.334 2.38397 109.549 2.0647 109.821 1.79997C110.456 1.28153 111.249 0.998535 112.067 0.998535C112.885 0.998535 113.678 1.28153 114.313 1.79997C114.582 2.07007 114.795 2.39074 114.94 2.74373C115.086 3.09671 115.161 3.47509 115.161 3.85717C115.161 4.23926 115.086 4.61759 114.94 4.97057C114.795 5.32357 114.582 5.64429 114.313 5.91438C113.682 6.4409 112.887 6.72908 112.067 6.72908C111.247 6.72908 110.453 6.4409 109.821 5.91438C109.546 5.64867 109.33 5.32739 109.188 4.97169C109.045 4.61598 108.979 4.23395 108.994 3.85072ZM114.839 29.9237H109.315V9.20977H114.839V29.9237ZM98.2839 22.3981L100.991 9.21004H106.304L101.081 29.924H96.4681L92.5671 16.8843L88.6597 29.924H84.0721L78.811 9.21004H84.13L86.8118 22.3787L90.5846 9.21004H94.5689L98.2839 22.3981ZM124.61 11.6023L124.436 9.20971H119.227V29.9042H124.731V15.2975C125.068 14.6709 125.574 14.1518 126.189 13.7996C126.805 13.4473 127.507 13.2758 128.215 13.3048C128.674 13.2557 129.138 13.3008 129.58 13.4371C130.021 13.5734 130.43 13.7983 130.782 14.098C131.359 14.8259 131.633 15.7508 131.545 16.6776V29.943H137.05V16.5614C137.016 13.9819 136.469 12.0472 135.408 10.7574C134.347 9.46765 132.722 8.82274 130.532 8.82274C129.396 8.78355 128.268 9.01498 127.239 9.49806C126.21 9.98114 125.309 10.7022 124.61 11.6023ZM140.419 19.4123C140.419 16.2351 141.172 13.677 142.678 11.738C143.385 10.7972 144.306 10.0412 145.365 9.53389C146.424 9.02652 147.588 8.78272 148.76 8.8231C149.761 8.77166 150.76 8.95664 151.677 9.36316C152.594 9.76969 153.403 10.3864 154.04 11.1641L154.265 9.22938H159.257V29.221C159.297 30.8809 158.871 32.5185 158.032 33.9481C157.206 35.2911 156.003 36.3573 154.573 37.0113C152.932 37.7466 151.148 38.1077 149.351 38.069C147.833 38.0676 146.332 37.7583 144.936 37.1597C143.667 36.673 142.544 35.8643 141.677 34.8122L144.115 31.4395C144.724 32.1742 145.488 32.7636 146.351 33.1653C147.214 33.5667 148.156 33.7703 149.107 33.7611C149.724 33.7992 150.343 33.7146 150.927 33.5121C151.512 33.3095 152.051 32.9932 152.514 32.5809C152.936 32.14 153.264 31.6151 153.474 31.0399C153.683 30.4648 153.772 29.8518 153.732 29.2404V28.1312C153.108 28.8411 152.335 29.4033 151.469 29.7768C150.602 30.1503 149.664 30.3262 148.722 30.2916C147.562 30.3205 146.413 30.0712 145.368 29.5642C144.324 29.0574 143.415 28.3074 142.716 27.3767C141.185 25.4292 140.419 22.8495 140.419 19.638V19.4123ZM145.925 19.8249C145.836 21.3788 146.228 22.9218 147.047 24.2425C147.383 24.752 147.843 25.1669 148.383 25.4479C148.923 25.7288 149.526 25.8666 150.133 25.8482C150.853 25.8974 151.573 25.742 152.209 25.4C152.846 25.0578 153.374 24.5428 153.732 23.9136V15.2205C153.371 14.6046 152.848 14.1014 152.219 13.7667C151.59 13.4321 150.882 13.279 150.172 13.3245C149.558 13.305 148.948 13.4449 148.403 13.7307C147.858 14.0164 147.396 14.4384 147.06 14.956C146.303 16.0394 145.925 17.6625 145.925 19.8249ZM174.376 23.2528C174.552 23.5355 174.647 23.8624 174.648 24.1963C174.654 24.5074 174.584 24.8153 174.443 25.0923C174.302 25.3691 174.094 25.6065 173.84 25.7828C173.127 26.2357 172.288 26.4479 171.446 26.3891C170.483 26.4391 169.533 26.1618 168.746 25.6022C168.406 25.3326 168.132 24.9897 167.944 24.5989C167.754 24.2081 167.656 23.7796 167.654 23.345H162.438C162.439 24.6007 162.839 25.8232 163.58 26.8339C164.382 27.9619 165.47 28.8527 166.73 29.4135C168.179 30.0548 169.748 30.3718 171.331 30.3421C173.546 30.4415 175.735 29.8293 177.58 28.5944C178.334 28.0957 178.95 27.4141 179.374 26.6129C179.796 25.8116 180.01 24.9162 180 24.0093C180 21.3653 178.544 19.508 175.636 18.4375C174.507 18.0371 173.349 17.7266 172.172 17.5088C171.146 17.3562 170.157 17.0245 169.246 16.5285C168.983 16.3809 168.764 16.1656 168.613 15.9049C168.46 15.6443 168.38 15.3476 168.38 15.0453C168.374 14.7365 168.441 14.4307 168.573 14.152C168.706 13.8733 168.9 13.6294 169.142 13.4395C169.762 12.9787 170.523 12.7506 171.293 12.7946C171.72 12.7568 172.152 12.8058 172.56 12.9387C172.969 13.0717 173.347 13.2858 173.673 13.5685C173.923 13.8227 174.12 14.1251 174.25 14.4576C174.382 14.79 174.445 15.1457 174.436 15.5032H179.942C179.961 14.5685 179.758 13.6428 179.348 12.8035C178.937 11.9642 178.334 11.2358 177.587 10.6794C176.021 9.44119 173.929 8.82208 171.311 8.82208C169.174 8.72228 167.071 9.37708 165.364 10.673C164.651 11.2067 164.074 11.9017 163.678 12.7017C163.283 13.5017 163.079 14.3841 163.087 15.2775C163.087 18.4288 165.537 20.5225 170.439 21.5587C171.553 21.743 172.635 22.093 173.647 22.5971C173.946 22.7429 174.198 22.9701 174.376 23.2528Z" fill="url(#paint0_linear)"/>
<path fill-rule="evenodd" clip-rule="evenodd" d="M0.865952 0.998535H33.0784H39.0263H57.549C58.9451 1.00771 60.3257 1.30016 61.6121 1.85915C62.8983 2.41815 64.0649 3.23274 65.0454 4.25634C66.0259 5.27996 66.8008 6.49248 67.3258 7.82467C67.851 9.15687 68.1161 10.5826 68.1057 12.0203V19.0341C68.1059 20.6149 67.5015 22.1319 66.4235 23.2571C65.3454 24.3823 63.8805 25.0249 62.3458 25.046H42.8083C42.5503 25.046 42.3027 25.1517 42.1202 25.3396C41.9378 25.5274 41.8353 25.7823 41.8353 26.0481V28.052C41.8353 28.3177 41.9378 28.5726 42.1202 28.7604C42.3027 28.9484 42.5503 29.054 42.8083 29.054H56.43C56.9461 29.054 57.4411 28.8429 57.8059 28.467C58.171 28.0913 58.376 27.5816 58.376 27.0499H66.1598C66.4219 27.0498 66.6816 27.1041 66.9228 27.2099C67.1641 27.3155 67.3824 27.4703 67.5641 27.665C67.7459 27.8597 67.8875 28.0902 67.9805 28.3426C68.0737 28.595 68.1162 28.8643 68.1057 29.1341V29.2543C68.1329 30.5163 67.9184 31.7714 67.4743 32.9479C67.0303 34.1245 66.3654 35.1994 65.5179 36.1113C64.6704 37.0231 63.6568 37.754 62.5348 38.2623C61.4128 38.7708 60.2046 39.0464 58.9791 39.0738H38.9163C37.11 39.0738 35.3776 38.3348 34.1003 37.0195C33.2933 36.1883 32.7097 35.1702 32.3894 34.0639H21.5124C19.6776 34.0639 17.9181 33.3133 16.6206 31.9773C15.3233 30.6413 14.5945 28.8293 14.5945 26.9399V25.9379C14.5945 25.7014 14.6857 25.4745 14.8481 25.3072C15.0105 25.1401 15.2308 25.046 15.4604 25.046H32.1055V22.0401H13.7287C12.8202 22.0401 11.9207 21.8557 11.0813 21.4978C10.242 21.1398 9.47941 20.615 8.83702 19.9535C8.19463 19.2919 7.68506 18.5066 7.33741 17.6422C6.98974 16.7779 6.81082 15.8515 6.81082 14.916V13.914C6.81082 13.6775 6.90204 13.4507 7.06445 13.2834C7.22684 13.1162 7.4471 13.0222 7.67676 13.0222H32.1055V10.0164H6.91789C6.00942 10.0164 5.10985 9.83207 4.27053 9.47405C3.43122 9.11604 2.66859 8.5913 2.0262 7.92978C1.38382 7.26824 0.874248 6.48287 0.52659 5.61853C0.178934 4.7542 0 3.82784 0 2.8923V1.89031C0 1.7732 0.0224004 1.65722 0.0659185 1.54903C0.109437 1.44084 0.17322 1.34254 0.253631 1.25973C0.334042 1.17693 0.429501 1.11123 0.534564 1.06642C0.639625 1.0216 0.752233 0.998535 0.865952 0.998535ZM42.1202 11.3118C41.9378 11.4997 41.8353 11.7546 41.8353 12.0203V14.0243C41.8353 14.29 41.9378 14.5449 42.1202 14.7328C42.3027 14.9207 42.5503 15.0262 42.8083 15.0262H58.5024C58.5026 13.9736 58.1004 12.9632 57.3832 12.2133C56.6659 11.4633 55.6909 11.0341 54.6689 11.0183H42.8083C42.5503 11.0183 42.3027 11.1239 42.1202 11.3118Z" fill="url(#paint1_linear)"/>
<defs>
<linearGradient id="paint0_linear" x1="78.2072" y1="12.897" x2="179.63" y2="34.8344" gradientUnits="userSpaceOnUse">
<stop stop-color="#52C600"/>
<stop offset="1" stop-color="#97FF13"/>
</linearGradient>
<linearGradient id="paint1_linear" x1="2.48275" y1="2.78331" x2="117.459" y2="29.2252" gradientUnits="userSpaceOnUse">
<stop stop-color="#52C600"/>
<stop offset="1" stop-color="#97FF13"/>
</linearGradient>
</defs>
</svg>
