<svg width="65" height="65" viewBox="0 0 65 65" fill="none" xmlns="http://www.w3.org/2000/svg">
<path fill-rule="evenodd" clip-rule="evenodd" d="M65 32.5C65 50.4493 50.4493 65 32.5 65C14.5507 65 0 50.4493 0 32.5C0 14.5507 14.5507 0 32.5 0C50.4493 0 65 14.5507 65 32.5ZM47.0967 38.8878C49.609 38.8878 51.6528 40.9316 51.6528 43.4439C51.6528 45.9562 49.609 48.0001 47.0967 48.0001C44.5844 48.0001 42.5406 45.9562 42.5406 43.4439C42.5406 40.9316 44.5845 38.8878 47.0967 38.8878ZM23.7627 14.818L19.306 38.8948C16.9097 39.0252 14.9999 41.0156 14.9999 43.4438C14.9999 45.9561 17.0438 47.9999 19.556 47.9999C22.0683 47.9999 24.1122 45.956 24.1122 43.4437C24.1122 41.5946 23.0041 40.0002 21.4175 39.2869L21.998 36.1512L27.5998 46.4246H41.0934C40.6455 45.5262 40.393 44.514 40.393 43.4437C40.393 42.1164 40.7808 40.878 41.4489 39.8358H26.4532L22.6178 32.8022L25.7008 16.1476H28.6717C29.2239 16.1476 29.6717 15.6999 29.6717 15.1476V15C29.6717 14.4477 29.2239 14 28.6717 14H24.746C24.2639 14 23.8505 14.344 23.7627 14.818Z" fill="url(#paint0_linear)"/>
<defs>
<linearGradient id="paint0_linear" x1="65" y1="13.6047" x2="8.90524e-07" y2="36.2791" gradientUnits="userSpaceOnUse">
<stop stop-color="#52C600"/>
<stop offset="1" stop-color="#97FF13"/>
</linearGradient>
</defs>
</svg>
