<svg width="65" height="65" viewBox="0 0 65 65" fill="none" xmlns="http://www.w3.org/2000/svg">
<path fill-rule="evenodd" clip-rule="evenodd" d="M65 32.5C65 50.4493 50.4493 65 32.5 65C14.5507 65 0 50.4493 0 32.5C0 14.5507 14.5507 0 32.5 0C50.4493 0 65 14.5507 65 32.5ZM44.7027 21.2185L32.4676 16.6894C32.2455 16.6073 31.9994 16.6073 31.7785 16.6894L19.5436 21.2185C19.1534 21.3611 18.8955 21.7329 18.8955 22.1483V32.7312C18.8955 44.7718 31.7388 48.3047 31.8698 48.3391C31.9517 48.3602 32.0377 48.3721 32.1224 48.3721C32.207 48.3721 32.293 48.3602 32.3751 48.3391C32.5061 48.3047 45.3494 44.7704 45.3494 32.7312V22.1483C45.3494 21.7329 45.0915 21.3611 44.7027 21.2185ZM32.1224 41.0973C27.382 41.0973 23.5248 37.2403 23.5248 32.4996C23.5248 27.7592 27.382 23.9022 32.1224 23.9022C36.8629 23.9022 40.7201 27.7592 40.7201 32.4996C40.7201 37.2403 36.8629 41.0973 32.1224 41.0973ZM33.5019 35.7496C33.7598 36.0075 34.0984 36.1371 34.437 36.1371C34.7756 36.1371 35.1144 36.0075 35.3721 35.7496C35.8894 35.2323 35.8894 34.3965 35.3721 33.8791L33.445 31.952V28.8623C33.445 28.1307 32.8526 27.5395 32.1223 27.5395C31.3921 27.5395 30.7997 28.1307 30.7997 28.8623V32.4996C30.7997 32.8515 30.9385 33.1874 31.1872 33.4347L33.5019 35.7496Z" fill="url(#paint0_linear)"/>
<defs>
<linearGradient id="paint0_linear" x1="65" y1="13.6047" x2="8.90524e-07" y2="36.2791" gradientUnits="userSpaceOnUse">
<stop stop-color="#52C600"/>
<stop offset="1" stop-color="#97FF13"/>
</linearGradient>
</defs>
</svg>
