<svg width="65" height="65" viewBox="0 0 65 65" fill="none" xmlns="http://www.w3.org/2000/svg">
<path fill-rule="evenodd" clip-rule="evenodd" d="M32.5 65C50.4493 65 65 50.4493 65 32.5C65 14.5507 50.4493 0 32.5 0C14.5507 0 0 14.5507 0 32.5C0 50.4493 14.5507 65 32.5 65ZM33.6291 10.3674L45.5766 14.716C47.6159 15.4582 48.6699 17.7069 47.9284 19.7449L37.7254 47.7232C36.9862 49.7541 34.7233 50.8016 32.6924 50.0624L20.7206 45.7196C18.6894 44.9804 17.6014 42.7135 18.3404 40.6829L28.5302 12.6868C29.2693 10.6562 31.5979 9.62816 33.6291 10.3674ZM40.5386 15.3855L37.0723 14.1239C36.767 14.0128 36.4298 14.17 36.3187 14.4753C36.2076 14.7807 36.3648 15.1178 36.6701 15.229L40.1364 16.4906C40.4409 16.6014 40.7789 16.4445 40.8901 16.1392C41.0012 15.8338 40.8431 15.4964 40.5386 15.3855ZM35.7075 13.8263C35.5784 13.5445 35.2047 13.4117 34.9255 13.5416C34.7863 13.6068 34.6756 13.729 34.6225 13.8758C34.5702 14.0196 34.5761 14.1843 34.6408 14.3237C34.7089 14.4645 34.8276 14.5761 34.974 14.6294C35.1175 14.6817 35.2836 14.6737 35.4229 14.6083C35.5627 14.5431 35.6755 14.4219 35.7279 14.2781C35.7812 14.1315 35.7728 13.9658 35.7075 13.8263ZM25.9736 44.5186C25.6419 45.4301 26.1133 46.4421 27.0251 46.774C27.9366 47.1058 28.9486 46.6336 29.2804 45.7221C29.6123 44.8103 29.1407 43.7986 28.2289 43.4667C27.3171 43.1348 26.3055 43.6068 25.9736 44.5186ZM20.9455 39.543L36.6939 45.2749L45.6437 20.6856L29.8953 14.9536L20.9455 39.543Z" fill="url(#paint0_linear)"/>
<defs>
<linearGradient id="paint0_linear" x1="65" y1="13.6047" x2="8.90524e-07" y2="36.2791" gradientUnits="userSpaceOnUse">
<stop stop-color="#52C600"/>
<stop offset="1" stop-color="#97FF13"/>
</linearGradient>
</defs>
</svg>
