<svg width="65" height="65" viewBox="0 0 65 65" fill="none" xmlns="http://www.w3.org/2000/svg">
<path fill-rule="evenodd" clip-rule="evenodd" d="M32.5 65C50.4493 65 65 50.4493 65 32.5C65 14.5507 50.4493 0 32.5 0C14.5507 0 0 14.5507 0 32.5C0 50.4493 14.5507 65 32.5 65ZM27.999 46.1662C26.8897 47.2779 25.089 47.2779 23.9797 46.1662L14.832 37.006C13.7227 35.8943 13.7227 34.0897 14.832 32.978L28.5992 19.1882C29.3666 18.4116 30.4151 17.9852 31.5092 18.0004L39.7528 18.1146C41.4395 18.1375 42.7995 19.5004 42.8223 21.1908V21.2137C43.2022 21.3507 43.5897 21.4954 43.9772 21.6553C46.0818 22.531 47.9356 23.7112 49.2121 24.9905L49.2805 25.059C51.3395 27.1606 51.1115 28.7596 50.7924 29.521C50.4733 30.2901 49.5008 31.5769 46.568 31.5922C45.3828 31.5998 44.038 31.3942 42.6552 31.0059C42.4576 31.5084 42.1537 31.9805 41.7586 32.3765L27.999 46.1662ZM37.9141 22.9346C36.9948 22.0132 35.5056 22.0132 34.5863 22.9346C33.6669 23.8559 33.6669 25.3483 34.5787 26.2621C35.498 27.1834 36.9872 27.1834 37.9065 26.2621C37.9217 26.243 37.9388 26.224 37.9559 26.205C37.973 26.1859 37.9901 26.1669 38.0053 26.1479C38.9398 26.8408 40.0947 27.4804 41.3255 27.9982C45.5347 29.7571 48.3079 29.2089 48.5663 28.5921C48.6498 28.3941 48.5435 27.7469 47.5558 26.7342L47.5102 26.6885C46.4693 25.6453 44.8509 24.625 43.0502 23.8711C43.0161 23.8559 42.9838 23.8426 42.9515 23.8293C42.9192 23.8159 42.8869 23.8026 42.8527 23.7874L42.8983 27.1073C42.5184 26.9778 42.1233 26.8255 41.713 26.658C40.5582 26.1783 39.4793 25.5844 38.5751 24.9448C38.6815 24.2366 38.4612 23.4828 37.9141 22.9346Z" fill="url(#paint0_linear)"/>
<defs>
<linearGradient id="paint0_linear" x1="65" y1="13.6047" x2="8.90524e-07" y2="36.2791" gradientUnits="userSpaceOnUse">
<stop stop-color="#52C600"/>
<stop offset="1" stop-color="#97FF13"/>
</linearGradient>
</defs>
</svg>
