<svg width="20" height="20" viewBox="0 0 20 20" fill="none" xmlns="http://www.w3.org/2000/svg">
<path d="M2.53332 0H17.2037C18.5969 0 19.7368 1.03149 19.7368 2.53312V17.2039C19.7368 18.7056 18.5969 19.737 17.2037 19.737H2.53332C1.1397 19.737 0 18.7056 0 17.2039V2.53312C0 1.03149 1.1397 0 2.53332 0ZM14.3776 2.19287C13.8888 2.19287 13.4894 2.59249 13.4894 3.08149V5.20829C13.4894 5.69708 13.8888 6.09691 14.3776 6.09691H16.6083C17.0971 6.09691 17.497 5.69708 17.497 5.20829V3.08149C17.497 2.59249 17.0971 2.19287 16.6083 2.19287H14.3776ZM17.5063 8.34673H15.7692C15.9335 8.88334 16.0225 9.45177 16.0225 10.0399C16.0225 13.3228 13.2754 15.984 9.88727 15.984C6.49937 15.984 3.75266 13.3228 3.75266 10.0399C3.75266 9.45137 3.84142 8.88314 4.00597 8.34673H2.19327V16.6839C2.19327 17.1154 2.54629 17.4686 2.97793 17.4686H16.722C17.1537 17.4686 17.5067 17.1156 17.5067 16.6839V8.34673H17.5063ZM9.88706 5.98485C7.69804 5.98485 5.92324 7.70433 5.92324 9.82566C5.92324 11.947 7.69804 13.6665 9.88706 13.6665C12.0763 13.6665 13.8513 11.947 13.8513 9.82566C13.8513 7.70433 12.0765 5.98485 9.88706 5.98485Z" fill="#F9F9F9"/>
</svg>
