<svg width="128" height="28" viewBox="0 0 128 28" fill="none" xmlns="http://www.w3.org/2000/svg">
<path fill-rule="evenodd" clip-rule="evenodd" d="M77.5065 2.02822C77.4978 1.75731 77.5457 1.48757 77.647 1.23638C77.7485 0.985201 77.9011 0.758163 78.0951 0.569908C78.5465 0.201244 79.1103 0 79.6919 0C80.2736 0 80.8375 0.201244 81.2889 0.569908C81.48 0.761978 81.6318 0.990017 81.7353 1.24103C81.8387 1.49204 81.892 1.76111 81.892 2.03281C81.892 2.30452 81.8387 2.57355 81.7353 2.82457C81.6318 3.07559 81.48 3.30365 81.2889 3.49572C80.8401 3.87013 80.2753 4.07506 79.6919 4.07506C79.1087 4.07506 78.5439 3.87013 78.0951 3.49572C77.8995 3.30677 77.7459 3.0783 77.6444 2.82536C77.543 2.57241 77.4959 2.30074 77.5065 2.02822ZM81.663 20.569H77.7347V5.83911H81.663V20.569ZM69.8906 15.2175L71.8159 5.8393H75.5938L71.8798 20.5692H68.5994L65.8253 11.2965L63.0467 20.5692H59.7845L56.0432 5.8393H59.8256L61.7327 15.2037L64.4156 5.8393H67.2489L69.8906 15.2175ZM88.6111 7.54045L88.4879 5.83907H84.7831V20.5552H88.6978V10.1682C88.9374 9.72255 89.2967 9.35348 89.7346 9.10296C90.1726 8.85246 90.6718 8.73054 91.1752 8.7511C91.5017 8.71624 91.8316 8.74826 92.1453 8.84521C92.4589 8.94216 92.7499 9.10204 93.0004 9.31519C93.4109 9.83282 93.6056 10.4905 93.5433 11.1496V20.5827H97.458V11.0669C97.4336 9.23262 97.0442 7.85685 96.2899 6.93967C95.5355 6.02249 94.3797 5.56389 92.8224 5.56389C92.015 5.53602 91.2127 5.70059 90.4808 6.04412C89.7489 6.38764 89.1082 6.90039 88.6111 7.54045ZM99.8537 13.0943C99.8537 10.8349 100.389 9.01581 101.46 7.63698C101.962 6.96797 102.618 6.43037 103.37 6.06959C104.123 5.7088 104.951 5.53543 105.785 5.56414C106.497 5.52756 107.207 5.6591 107.859 5.94819C108.511 6.23727 109.087 6.67586 109.54 7.22883L109.7 5.85305H113.249V20.0693C113.277 21.2497 112.975 22.4142 112.378 23.4309C111.791 24.3859 110.935 25.144 109.918 25.6091C108.751 26.132 107.483 26.3888 106.205 26.3612C105.126 26.3602 104.058 26.1403 103.066 25.7147C102.163 25.3685 101.364 24.7935 100.748 24.0453L102.482 21.6469C102.915 22.1694 103.458 22.5885 104.072 22.8741C104.686 23.1596 105.355 23.3044 106.031 23.2978C106.47 23.325 106.91 23.2648 107.326 23.1208C107.742 22.9767 108.125 22.7518 108.454 22.4586C108.755 22.1451 108.988 21.7718 109.137 21.3628C109.286 20.9538 109.349 20.5179 109.321 20.0832V19.2944C108.877 19.7992 108.327 20.1989 107.711 20.4646C107.095 20.7302 106.428 20.8553 105.758 20.8307C104.933 20.8512 104.116 20.6739 103.373 20.3134C102.63 19.953 101.984 19.4197 101.487 18.7579C100.398 17.3729 99.8537 15.5385 99.8537 13.2548V13.0943ZM103.768 13.3877C103.706 14.4926 103.984 15.5899 104.567 16.5291C104.806 16.8913 105.133 17.1864 105.517 17.3862C105.901 17.586 106.329 17.684 106.761 17.6709C107.273 17.7059 107.785 17.5954 108.238 17.3522C108.69 17.1088 109.066 16.7426 109.321 16.2952V10.1134C109.064 9.67544 108.692 9.31762 108.244 9.07962C107.797 8.84163 107.294 8.73277 106.789 8.76512C106.352 8.7513 105.919 8.85078 105.531 9.05398C105.144 9.25719 104.815 9.55728 104.576 9.92534C104.037 10.6958 103.768 11.8499 103.768 13.3877ZM124 15.8253C124.126 16.0263 124.193 16.2587 124.194 16.4962C124.199 16.7175 124.149 16.9364 124.048 17.1333C123.948 17.3302 123.8 17.499 123.62 17.6244C123.112 17.9464 122.516 18.0974 121.917 18.0555C121.232 18.0911 120.556 17.8939 119.997 17.4959C119.755 17.3043 119.56 17.0604 119.427 16.7825C119.292 16.5046 119.222 16.1999 119.221 15.8909H115.511C115.512 16.7838 115.796 17.6531 116.323 18.3719C116.894 19.174 117.667 19.8074 118.563 20.2062C119.594 20.6623 120.71 20.8877 121.835 20.8666C123.411 20.9372 124.967 20.5019 126.279 19.6238C126.815 19.2691 127.253 18.7844 127.554 18.2147C127.855 17.6449 128.007 17.0081 128 16.3632C128 14.4831 126.965 13.1623 124.896 12.401C124.094 12.1163 123.27 11.8955 122.433 11.7406C121.704 11.6321 121.001 11.3963 120.353 11.0435C120.166 10.9386 120.01 10.7855 119.902 10.6001C119.793 10.4148 119.737 10.2038 119.737 9.98883C119.732 9.76923 119.78 9.55174 119.874 9.35357C119.969 9.15539 120.107 8.98197 120.279 8.84694C120.72 8.51927 121.261 8.35702 121.808 8.38836C122.112 8.36144 122.419 8.39629 122.71 8.49082C123 8.58536 123.269 8.73766 123.501 8.93867C123.678 9.11945 123.819 9.33448 123.911 9.57088C124.005 9.80728 124.049 10.0602 124.043 10.3144H127.958C127.972 9.64978 127.828 8.99146 127.536 8.39463C127.244 7.79779 126.815 7.27982 126.284 6.88416C125.171 6.00367 123.683 5.56342 121.821 5.56342C120.302 5.49245 118.806 5.95809 117.592 6.8796C117.085 7.25918 116.675 7.7534 116.393 8.32227C116.112 8.89114 115.967 9.51863 115.973 10.1539C115.973 12.3949 117.715 13.8837 121.201 14.6206C121.993 14.7516 122.763 15.0006 123.482 15.359C123.695 15.4627 123.874 15.6243 124 15.8253Z" fill="url(#paint0_linear)"/>
<path fill-rule="evenodd" clip-rule="evenodd" d="M0.615789 0H23.5224H27.7521H40.9238C41.9166 0.00652632 42.8983 0.214488 43.8131 0.611996C44.7277 1.0095 45.5574 1.58877 46.2546 2.31666C46.9518 3.04457 47.5028 3.90681 47.8762 4.85415C48.2497 5.80149 48.4381 6.81534 48.4308 7.83772V12.8253C48.4309 13.9494 48.0011 15.0282 47.2345 15.8284C46.4679 16.6285 45.4262 17.0854 44.3348 17.1005H30.4415C30.258 17.1005 30.082 17.1756 29.9522 17.3092C29.8225 17.4428 29.7496 17.6241 29.7496 17.813V19.238C29.7496 19.427 29.8225 19.6083 29.9522 19.7418C30.082 19.8755 30.258 19.9506 30.4415 19.9506H40.1281C40.4951 19.9506 40.847 19.8005 41.1065 19.5332C41.3661 19.266 41.5118 18.9035 41.5118 18.5255H47.047C47.2334 18.5254 47.4181 18.564 47.5896 18.6392C47.7612 18.7143 47.9164 18.8244 48.0457 18.9628C48.1749 19.1013 48.2756 19.2652 48.3418 19.4447C48.408 19.6242 48.4383 19.8157 48.4308 20.0076V20.093C48.4501 20.9904 48.2976 21.883 47.9818 22.7196C47.666 23.5562 47.1932 24.3207 46.5906 24.9691C45.9879 25.6175 45.2671 26.1373 44.4693 26.4987C43.6714 26.8603 42.8122 27.0563 41.9408 27.0758H27.6738C26.3894 27.0758 25.1575 26.5503 24.2492 25.6149C23.6752 25.0239 23.2603 24.2999 23.0325 23.5132H15.2977C13.993 23.5132 12.7418 22.9795 11.8191 22.0294C10.8966 21.0794 10.3783 19.7908 10.3783 18.4472V17.7347C10.3783 17.5665 10.4432 17.4052 10.5587 17.2862C10.6742 17.1673 10.8308 17.1005 10.9941 17.1005H22.8306V14.9629H9.76265C9.11662 14.9629 8.47693 14.8318 7.88007 14.5773C7.28322 14.3227 6.74092 13.9495 6.28411 13.4791C5.8273 13.0086 5.46494 12.4502 5.21772 11.8355C4.97049 11.2209 4.84325 10.5621 4.84325 9.89686V9.18435C4.84325 9.01616 4.90812 8.85485 5.02361 8.73593C5.13909 8.617 5.29572 8.55019 5.45904 8.55019H22.8306V6.41268H4.91939C4.27337 6.41268 3.63367 6.28163 3.03682 6.02704C2.43998 5.77246 1.89767 5.39931 1.44086 4.92889C0.984052 4.45846 0.621688 3.89998 0.374465 3.28534C0.127242 2.6707 0 2.01195 0 1.34668V0.634154C0 0.550877 0.0159292 0.468402 0.0468754 0.391465C0.0778218 0.314526 0.123179 0.244627 0.18036 0.185741C0.237541 0.126855 0.305423 0.0801412 0.380135 0.0482725C0.454845 0.0164039 0.534922 0 0.615789 0ZM29.9522 7.3339C29.8225 7.46752 29.7496 7.64875 29.7496 7.83772V9.26276C29.7496 9.45173 29.8225 9.63295 29.9522 9.76658C30.082 9.9002 30.258 9.97528 30.4415 9.97528H41.6018C41.6019 9.22674 41.3159 8.50821 40.8059 7.97493C40.2958 7.44165 39.6025 7.13643 38.8757 7.1252H30.4415C30.258 7.1252 30.082 7.20028 29.9522 7.3339Z" fill="url(#paint1_linear)"/>
<defs>
<linearGradient id="paint0_linear" x1="55.6138" y1="8.46117" x2="127.737" y2="24.0611" gradientUnits="userSpaceOnUse">
<stop stop-color="#52C600"/>
<stop offset="1" stop-color="#97FF13"/>
</linearGradient>
<linearGradient id="paint1_linear" x1="1.76552" y1="1.26918" x2="83.5268" y2="20.0723" gradientUnits="userSpaceOnUse">
<stop stop-color="#52C600"/>
<stop offset="1" stop-color="#97FF13"/>
</linearGradient>
</defs>
</svg>
