<svg width="57" height="32" viewBox="0 0 57 32" fill="none" xmlns="http://www.w3.org/2000/svg">
<path fill-rule="evenodd" clip-rule="evenodd" d="M0.724721 0H27.6835H32.6614H48.1631C49.3315 0.00771325 50.4869 0.253497 51.5635 0.723299C52.64 1.1931 53.6163 1.87771 54.4369 2.73799C55.2575 3.59828 55.906 4.61734 56.3454 5.73697C56.7849 6.8566 57.0067 8.05483 56.9981 9.26315V15.1578C56.9982 16.4864 56.4924 17.7614 55.5902 18.707C54.688 19.6527 53.4619 20.1928 52.1775 20.2105H35.8265C35.6106 20.2105 35.4034 20.2993 35.2506 20.4572C35.098 20.6151 35.0122 20.8293 35.0122 21.0527V22.7368C35.0122 22.9602 35.098 23.1744 35.2506 23.3322C35.4034 23.4902 35.6106 23.579 35.8265 23.579H47.2266C47.6585 23.579 48.0728 23.4016 48.3781 23.0856C48.6836 22.7698 48.8552 22.3415 48.8552 21.8947H55.3695C55.5889 21.8946 55.8063 21.9402 56.0081 22.0291C56.2101 22.1179 56.3927 22.248 56.5448 22.4116C56.6969 22.5752 56.8154 22.7689 56.8933 22.9811C56.9712 23.1932 57.0069 23.4196 56.9981 23.6463V23.7473C57.0208 24.808 56.8413 25.8628 56.4696 26.8516C56.098 27.8404 55.5416 28.7438 54.8323 29.5102C54.123 30.2765 53.2747 30.8909 52.3357 31.318C51.3968 31.7454 50.3856 31.977 49.36 32H32.5693C31.0576 32 29.6077 31.3789 28.5388 30.2735C27.8633 29.5749 27.3749 28.7192 27.1069 27.7895H18.0039C16.4683 27.7895 14.9958 27.1587 13.9099 26.0359C12.8242 24.913 12.2142 23.3901 12.2142 21.8022V20.9601C12.2142 20.7613 12.2906 20.5706 12.4265 20.43C12.5624 20.2896 12.7467 20.2105 12.9389 20.2105H26.8693V17.6842H11.4896C10.7293 17.6842 9.97647 17.5292 9.27404 17.2284C8.57161 16.9275 7.93337 16.4865 7.39575 15.9306C6.85813 15.3745 6.43167 14.7145 6.14072 13.9881C5.84975 13.2617 5.70001 12.4831 5.70001 11.6968V10.8547C5.70001 10.6559 5.77636 10.4653 5.91228 10.3247C6.04818 10.1842 6.23252 10.1052 6.42473 10.1052H26.8693V7.57895H5.78962C5.02932 7.57895 4.27646 7.42407 3.57403 7.12318C2.87161 6.82229 2.23336 6.38127 1.69574 5.8253C1.15813 5.26932 0.731663 4.60926 0.440706 3.88284C0.149751 3.15641 0 2.37786 0 1.5916V0.749487C0 0.651064 0.018747 0.55359 0.0551676 0.46266C0.0915883 0.371729 0.144969 0.289117 0.212265 0.219522C0.279562 0.149927 0.359452 0.0947165 0.44738 0.0570518C0.535306 0.0193873 0.629548 0 0.724721 0ZM35.2506 8.66771C35.098 8.82563 35.0122 9.03982 35.0122 9.26315V10.9474C35.0122 11.1707 35.098 11.3849 35.2506 11.5428C35.4034 11.7007 35.6106 11.7895 35.8265 11.7895H48.961C48.9611 10.9048 48.6246 10.0556 48.0243 9.42532C47.424 8.79506 46.608 8.43432 45.7527 8.42105H35.8265C35.6106 8.42105 35.4034 8.50979 35.2506 8.66771Z" fill="url(#paint0_linear)"/>
<defs>
<linearGradient id="paint0_linear" x1="2.07783" y1="1.5" x2="98.3431" y2="23.5456" gradientUnits="userSpaceOnUse">
<stop stop-color="#52C600"/>
<stop offset="1" stop-color="#97FF13"/>
</linearGradient>
</defs>
</svg>
