<svg width="35" height="14" viewBox="0 0 35 14" fill="none" xmlns="http://www.w3.org/2000/svg">
<path d="M2.18107 0.197365C1.73778 -0.132056 1.11138 -0.0397538 0.78196 0.403529C0.452538 0.846812 0.544841 1.47321 0.988124 1.80263L2.18107 0.197365ZM17.7323 13L17.1358 13.8026C17.4899 14.0658 17.9746 14.0658 18.3287 13.8026L17.7323 13ZM34.4764 1.80263C34.9197 1.47321 35.012 0.846812 34.6826 0.403529C34.3532 -0.0397538 33.7268 -0.132056 33.2835 0.197365L34.4764 1.80263ZM0.988124 1.80263L17.1358 13.8026L18.3287 12.1974L2.18107 0.197365L0.988124 1.80263ZM18.3287 13.8026L34.4764 1.80263L33.2835 0.197365L17.1358 12.1974L18.3287 13.8026Z" fill="#52C600"/>
</svg>
