<svg width="35" height="14" viewBox="0 0 35 14" fill="none" xmlns="http://www.w3.org/2000/svg">
<path d="M1.59647 13.8026C1.15319 14.1321 0.526787 14.0398 0.197365 13.5965C-0.132056 13.1532 -0.0397538 12.5268 0.403529 12.1974L1.59647 13.8026ZM17.1477 1L16.5512 0.197365C16.9053 -0.0657883 17.39 -0.0657883 17.7441 0.197366L17.1477 1ZM33.8918 12.1974C34.3351 12.5268 34.4274 13.1532 34.098 13.5965C33.7686 14.0398 33.1422 14.1321 32.6989 13.8026L33.8918 12.1974ZM0.403529 12.1974L16.5512 0.197365L17.7441 1.80264L1.59647 13.8026L0.403529 12.1974ZM17.7441 0.197366L33.8918 12.1974L32.6989 13.8026L16.5512 1.80263L17.7441 0.197366Z" fill="#52C600"/>
</svg>
