<svg width="91" height="51" viewBox="0 0 91 51" fill="none" xmlns="http://www.w3.org/2000/svg">
<path fill-rule="evenodd" clip-rule="evenodd" d="M1.15701 0H44.1964H52.1436H76.8919C78.7573 0.012293 80.6019 0.404011 82.3207 1.15276C84.0392 1.9015 85.598 2.99261 86.908 4.36368C88.2181 5.73476 89.2534 7.35888 89.9549 9.1433C90.6566 10.9277 91.0107 12.8374 90.9969 14.7631V24.1578C90.9971 26.2752 90.1896 28.3072 88.7492 29.8144C87.3088 31.3215 85.3515 32.1822 83.301 32.2105H57.1967C56.8519 32.2105 56.5212 32.352 56.2773 32.6037C56.0337 32.8553 55.8966 33.1967 55.8966 33.5527V36.2368C55.8966 36.5928 56.0337 36.9342 56.2773 37.1858C56.5212 37.4375 56.8519 37.579 57.1967 37.579H75.3969C76.0864 37.579 76.7477 37.2962 77.2353 36.7927C77.723 36.2894 77.9969 35.6067 77.9969 34.8946H88.397C88.7472 34.8944 89.0942 34.9672 89.4164 35.1089C89.7389 35.2504 90.0304 35.4577 90.2733 35.7184C90.5161 35.9792 90.7054 36.288 90.8296 36.6261C90.9541 36.9642 91.0109 37.325 90.9969 37.6863V37.8473C91.0333 39.5377 90.7466 41.2188 90.1533 42.7947C89.56 44.3706 88.6717 45.8105 87.5393 47.0319C86.4069 48.2532 85.0526 49.2323 83.5536 49.9131C82.0545 50.5942 80.4401 50.9633 78.8027 51H51.9966C49.5832 51 47.2685 50.0102 45.5619 48.2483C44.4836 47.1351 43.7039 45.7713 43.2759 44.2895H28.743C26.2915 44.2895 23.9406 43.2842 22.2071 41.4947C20.4737 39.7052 19.4999 37.278 19.4999 34.7473V33.4051C19.4999 33.0884 19.6218 32.7844 19.8388 32.5603C20.0558 32.3365 20.35 32.2105 20.6568 32.2105H42.8966V28.1842H18.3431C17.1293 28.1842 15.9274 27.9372 14.8059 27.4578C13.6845 26.9782 12.6656 26.2754 11.8073 25.3893C10.949 24.5031 10.2681 23.4512 9.8036 22.2935C9.33908 21.1358 9.10002 19.8949 9.10002 18.6418V17.2997C9.10002 16.9829 9.2219 16.679 9.4389 16.455C9.65587 16.231 9.95016 16.1052 10.257 16.1052H42.8966V12.079H9.24308C8.02927 12.079 6.82733 11.8321 5.7059 11.3526C4.5845 10.873 3.56554 10.1702 2.70724 9.28407C1.84894 8.39798 1.16809 7.34601 0.703584 6.18827C0.239075 5.03053 0 3.78972 0 2.53661V1.19449C0 1.03763 0.0299294 0.882283 0.0880745 0.737364C0.14622 0.592443 0.231441 0.46078 0.338879 0.349863C0.446318 0.238945 0.573861 0.150954 0.714238 0.0909263C0.854612 0.0308985 1.00507 0 1.15701 0ZM56.2773 13.8142C56.0337 14.0659 55.8966 14.4072 55.8966 14.7631V17.4474C55.8966 17.8033 56.0337 18.1447 56.2773 18.3964C56.5212 18.6481 56.8519 18.7895 57.1967 18.7895H78.1658C78.166 17.3795 77.6288 16.0261 76.6704 15.0216C75.712 14.0171 74.4093 13.4422 73.0438 13.421H57.1967C56.8519 13.421 56.5212 13.5625 56.2773 13.8142Z" fill="white" fill-opacity="0.49"/>
</svg>
