<svg width="24" height="26" viewBox="0 0 24 26" fill="none" xmlns="http://www.w3.org/2000/svg">
<g clip-path="url(#clip0)">
<path d="M11.6366 0.0751953C6.98906 0.0751953 3.20801 4.20865 3.20801 9.28934C3.20801 15.5946 10.7508 24.8512 11.0719 25.2421C11.3736 25.6094 11.9002 25.6088 12.2013 25.2421C12.5225 24.8512 20.0652 15.5946 20.0652 9.28934C20.0652 4.20865 16.2841 0.0751953 11.6366 0.0751953ZM11.6366 13.9252C9.29832 13.9252 7.39602 11.8456 7.39602 9.28934C7.39602 6.7331 9.29837 4.6535 11.6366 4.6535C13.9749 4.6535 15.8772 6.73315 15.8772 9.28939C15.8772 11.8456 13.9749 13.9252 11.6366 13.9252Z" fill="white"/>
</g>
<defs>
<clipPath id="clip0">
<rect y="0.0751953" width="23.2731" height="25.4422" fill="white"/>
</clipPath>
</defs>
</svg>
