<svg width="24" height="18" viewBox="0 0 24 18" fill="none" xmlns="http://www.w3.org/2000/svg">
<path d="M0.486883 2.12375C3.68808 4.73841 9.30519 9.33839 10.9561 10.7727C11.1778 10.9663 11.4155 11.0647 11.6622 11.0647C11.9085 11.0647 12.1458 10.9672 12.3669 10.7745C14.0193 9.33883 19.6364 4.73841 22.8377 2.12375C23.037 1.96127 23.0674 1.67569 22.906 1.47705C22.533 1.01806 21.9768 0.754883 21.3808 0.754883H1.94371C1.3477 0.754883 0.791514 1.01806 0.41855 1.4771C0.257191 1.67569 0.287577 1.96127 0.486883 2.12375Z" fill="white"/>
<path d="M23.0428 3.54076C22.8705 3.46344 22.6679 3.49041 22.5246 3.60851C20.428 5.32244 17.6658 7.58698 15.5826 9.31511C15.473 9.40575 15.4113 9.53892 15.4136 9.6785C15.416 9.81764 15.4829 9.94897 15.5959 10.0359C17.5315 11.5311 20.4485 13.5879 22.555 15.0496C22.639 15.1082 22.7386 15.138 22.8387 15.138C22.9147 15.138 22.9906 15.121 23.0603 15.0862C23.2227 15.0062 23.3247 14.845 23.3247 14.6693V3.96593C23.3246 3.78333 23.2145 3.61721 23.0428 3.54076Z" fill="white"/>
<path d="M0.769709 15.0492C2.87666 13.5875 5.79414 11.5307 7.7293 10.0355C7.84223 9.94856 7.90916 9.8172 7.91152 9.6781C7.91389 9.53851 7.85221 9.40534 7.7426 9.3147C5.65934 7.58658 2.89657 5.32204 0.800095 3.60811C0.65582 3.49001 0.452733 3.46395 0.281899 3.54036C0.110108 3.61681 0 3.78293 0 3.96552V14.6689C0 14.8447 0.102045 15.0058 0.264314 15.0859C0.33406 15.1207 0.410001 15.1376 0.485943 15.1376C0.586074 15.1376 0.685705 15.1079 0.769709 15.0492Z" fill="white"/>
<path d="M22.729 16.3241C20.6946 14.9204 16.9472 12.3035 14.7102 10.5525C14.528 10.4092 14.2641 10.4138 14.0848 10.563C13.6458 10.9323 13.2785 11.2436 13.018 11.4696C12.2179 12.1662 11.1075 12.1662 10.3055 11.4687C10.0459 11.2431 9.67865 10.9309 9.23967 10.563C9.06173 10.4128 8.79742 10.4083 8.6147 10.5524C6.38529 12.2975 2.63359 14.9176 0.595932 16.324C0.482498 16.4028 0.409427 16.524 0.395213 16.6581C0.381456 16.7922 0.427467 16.9254 0.522861 17.0242C0.890677 17.4064 1.40887 17.6257 1.9437 17.6257H21.3808C21.9156 17.6257 22.4333 17.4064 22.8021 17.0243C22.897 16.9259 22.9435 16.7927 22.9297 16.6586C22.9155 16.5246 22.8424 16.4028 22.729 16.3241Z" fill="white"/>
</svg>
