<svg width="55" height="55" viewBox="0 0 55 55" fill="none" xmlns="http://www.w3.org/2000/svg">
<path d="M55 27.5C55 42.688 42.688 55 27.5 55C12.312 55 0 42.688 0 27.5C0 12.312 12.312 0 27.5 0C42.688 0 55 12.312 55 27.5Z" fill="url(#paint0_linear)"/>
<path d="M27.5 48.9844C15.6534 48.9844 6.01562 39.3466 6.01562 27.5C6.01562 15.6534 15.6534 6.01562 27.5 6.01562C39.3466 6.01562 48.9844 15.6534 48.9844 27.5C48.9844 39.3466 39.3466 48.9844 27.5 48.9844ZM27.5 9.23828C17.4305 9.23828 9.23828 17.4305 9.23828 27.5C9.23828 37.5695 17.4305 45.7617 27.5 45.7617C37.5695 45.7617 45.7617 37.5695 45.7617 27.5C45.7617 17.4305 37.5695 9.23828 27.5 9.23828Z" fill="white"/>
<path d="M27.5001 34.3738C26.6101 34.3738 25.8888 33.6525 25.8888 32.7625V28.5525C25.8888 27.6625 26.6101 26.9411 27.5001 26.9411C29.3976 26.9411 30.9414 25.3974 30.9414 23.4999C30.9414 21.6024 29.3976 20.0586 27.5001 20.0586C25.6026 20.0586 24.0588 21.6024 24.0588 23.4999C24.0588 24.3899 23.3375 25.1112 22.4475 25.1112C21.5579 25.1112 20.8362 24.3899 20.8362 23.4999C20.8362 19.8253 23.8255 16.8359 27.5001 16.8359C31.1747 16.8359 34.164 19.8253 34.164 23.4999C34.164 26.6189 32.0097 29.244 29.1114 29.9666V32.7625C29.1114 33.6525 28.3901 34.3738 27.5001 34.3738Z" fill="white"/>
<path d="M29.6052 37.8157C29.6052 38.9784 28.6628 39.9209 27.5 39.9209C26.3372 39.9209 25.3948 38.9784 25.3948 37.8157C25.3948 36.6529 26.3372 35.7104 27.5 35.7104C28.6628 35.7104 29.6052 36.6529 29.6052 37.8157Z" fill="white"/>
<defs>
<linearGradient id="paint0_linear" x1="9.23828" y1="47.2656" x2="48.9844" y2="11.8164" gradientUnits="userSpaceOnUse">
<stop stop-color="#52C600"/>
<stop offset="1" stop-color="#97FF13"/>
</linearGradient>
</defs>
</svg>
