<svg width="521" height="393" viewBox="0 0 521 393" fill="none" xmlns="http://www.w3.org/2000/svg">
<path d="M-33.0138 168.848C-33.0138 244.994 22.5296 393 194.283 393C374.888 393 475.907 272.582 502.49 232.078C541.133 173.198 483.247 110.484 277.974 154.468C106.22 154.468 -136.967 -202.482 -33.0138 168.848Z" fill="white"/>
<ellipse cx="280.265" cy="320.749" rx="106.187" ry="6.56824" fill="#F0F0F0"/>
<path d="M508.521 123.922C494.962 107.291 464.164 103.303 452.376 130.032C450.264 111.958 442.156 90.6595 429.073 80.7315C412.789 68.4275 387.578 65.2879 370.952 73.9431C365.161 76.913 340.29 104.151 344.106 136.905C341.517 131.559 336.747 123.328 332.523 118.577C313.99 97.363 290.687 98.8055 276.446 114.164C274.606 116.116 273.039 118.407 271.676 120.953C268.269 105.254 260.842 89.0472 249.872 80.7315C233.588 68.4275 208.377 65.2879 191.751 73.9431C185.96 76.913 161.09 104.151 164.905 136.905C162.316 131.559 157.547 123.328 153.322 118.577C134.789 97.363 111.486 98.8055 97.2451 114.164C81.6416 130.965 82.7318 170.083 105.762 189.261C93.4975 183.49 75.3049 191.552 72.7838 210.389C70.6034 226.681 74.896 250.101 94.7921 259.52H273.925H299.885H479.018C514.245 234.318 533.868 155.064 508.521 123.922Z" fill="#0ADA38" fill-opacity="0.1"/>
<path opacity="0.2" d="M238.666 224.134V224.024C238.666 222.163 239.104 220.302 240.308 219.207H240.417C242.278 217.565 244.796 218.113 247.314 219.645L247.423 219.755C247.971 220.083 248.409 220.412 248.956 220.849C250.598 221.944 252.569 224.134 252.897 224.462C252.897 224.462 252.897 224.462 253.006 224.571C253.006 224.462 252.897 224.352 252.897 224.134H252.787L252.897 224.024C251.364 218.988 250.16 213.515 249.832 208.26C249.832 208.26 249.832 208.26 249.722 208.26L249.832 208.041C249.613 204.1 249.722 200.159 250.598 196.547C250.708 196 250.927 195.452 251.036 194.905L251.145 194.686C252.24 191.183 254.649 186.913 258.152 186.257H258.371C258.918 186.147 259.356 186.147 259.903 186.257C261.874 186.476 263.516 187.899 264.72 189.541L264.829 189.65C266.033 191.292 266.909 193.372 267.566 195.014C268.223 196.875 268.88 198.736 269.318 200.597L269.427 200.707C269.427 200.707 269.427 200.707 269.318 200.816C270.522 205.524 271.069 210.45 271.398 215.266L271.507 215.376C271.507 215.376 271.507 215.376 271.398 215.485C271.507 218.003 271.616 220.412 271.726 222.929C271.835 225.009 271.835 227.089 271.835 229.169L272.054 229.279C272.054 229.279 271.945 229.388 271.835 229.607C271.835 229.936 271.835 230.373 271.835 230.702C272.054 229.607 272.273 228.403 272.602 227.308L272.492 227.199L272.602 227.089C273.368 223.586 274.463 220.193 275.886 216.908C275.886 216.908 275.886 216.908 275.886 216.799L275.995 216.69C276.543 215.376 277.199 214.062 277.966 212.858C278.623 211.763 279.498 210.45 280.593 209.355L280.703 209.246C281.797 208.151 283.111 207.385 284.534 207.494C284.972 207.494 285.3 207.603 285.629 207.713H285.738C288.256 208.589 289.351 211.982 289.789 214.61V214.719C289.898 215.157 289.898 215.595 289.898 216.033C290.117 218.769 289.789 221.616 289.022 224.462V224.571C289.022 224.571 289.022 224.571 288.913 224.571C288.037 228.293 286.505 232.125 284.862 235.519V235.628H284.753C284.753 235.737 284.643 235.847 284.643 235.956C284.753 235.956 284.753 235.847 284.862 235.847C285.41 235.409 286.833 234.314 288.037 233.767C288.475 233.548 288.803 233.329 289.241 233.22H289.351C291.321 232.453 293.182 232.344 294.386 233.767H294.496C295.262 234.752 295.262 236.175 295.043 237.489V237.598C294.934 238.255 294.715 238.912 294.605 239.35C294.167 240.445 293.62 241.649 292.854 242.634V242.744C292.854 242.744 292.854 242.744 292.744 242.744C291.431 244.714 289.679 246.466 287.928 247.889C287.49 248.217 287.161 248.546 286.723 248.874V248.983C286.723 248.983 286.723 248.983 286.614 248.983C284.534 250.625 282.235 252.158 279.936 253.581V253.691C279.936 253.691 279.827 253.691 279.717 253.691C278.404 254.457 276.981 255.223 275.667 255.99C273.696 256.975 271.398 258.179 269.537 258.836C269.427 258.836 269.427 258.945 269.318 258.945L269.208 258.836C269.208 258.836 269.318 258.836 269.318 258.726C269.427 258.617 269.427 258.398 269.537 258.288C269.318 258.617 269.099 258.945 269.099 259.274V259.055L268.88 259.383C268.88 259.055 268.77 258.507 268.442 257.96C268.442 258.179 268.551 258.398 268.551 258.617L268.661 258.726L268.551 258.836C268.442 258.726 268.332 258.617 268.332 258.617C265.924 257.413 263.187 255.223 260.779 253.362C259.027 252.158 257.385 250.735 255.743 249.421C255.524 249.421 255.524 249.312 255.524 249.312V249.202C252.678 246.794 250.051 244.276 247.533 241.539C247.423 241.539 247.423 241.539 247.423 241.539V241.43C246.986 240.883 246.548 240.445 246 239.897C244.03 237.598 242.059 234.752 240.636 231.797C240.527 231.797 240.527 231.797 240.527 231.797V231.687C239.76 230.154 239.213 228.512 238.994 226.87C238.775 225.885 238.666 225.009 238.666 224.134Z" fill="white"/>
<path opacity="0.2" d="M365.652 210.121V209.902C365.652 207.275 366.309 204.648 367.951 203.006L368.06 202.896C370.797 200.597 374.3 201.364 377.913 203.553L378.022 203.662C378.788 204.1 379.445 204.648 380.212 205.195C382.51 206.728 385.466 209.902 385.904 210.45L386.013 210.559C385.904 210.34 385.904 210.121 385.795 210.012C385.685 210.012 385.685 210.012 385.576 209.902L385.685 209.683C383.496 202.458 381.854 194.686 381.306 187.023H381.197L381.306 186.804C380.978 181.111 381.197 175.528 382.401 170.274C382.62 169.508 382.839 168.741 383.058 167.866L383.167 167.647C384.809 162.611 388.093 156.59 393.238 155.605H393.567C394.224 155.495 394.99 155.495 395.756 155.605C398.603 155.933 400.901 157.904 402.653 160.312L402.872 160.531C404.623 162.939 405.828 165.786 406.703 168.194C407.689 170.821 408.455 173.449 409.221 176.185L409.44 176.404C409.44 176.404 409.44 176.404 409.331 176.514C410.973 183.301 411.849 190.307 412.286 197.313L412.505 197.532C412.505 197.532 412.396 197.532 412.396 197.642C412.615 201.145 412.724 204.757 412.834 208.26C412.943 211.216 412.943 214.172 412.943 217.127L413.272 217.346C413.272 217.346 413.162 217.565 412.943 217.784C412.943 218.332 412.943 218.879 412.943 219.426C413.272 217.784 413.6 216.142 414.038 214.5C413.928 214.391 413.928 214.391 413.928 214.391L414.038 214.281C415.242 209.245 416.665 204.319 418.636 199.722L418.526 199.612L418.636 199.503C419.402 197.642 420.387 195.781 421.372 194.029C422.248 192.387 423.562 190.526 425.095 188.993L425.204 188.884C426.737 187.351 428.598 186.257 430.678 186.257C431.225 186.257 431.772 186.366 432.32 186.585H432.539C436.151 187.899 437.793 192.606 438.34 196.437V196.656C438.45 197.313 438.45 197.861 438.559 198.517C438.778 202.458 438.34 206.509 437.355 210.559V210.778H437.246C435.932 216.142 433.852 221.616 431.334 226.542V226.761H431.225C431.115 226.87 431.115 226.98 431.006 227.199C431.115 227.089 431.225 227.089 431.225 226.98C431.991 226.432 434.071 224.79 435.823 224.024C436.37 223.696 437.027 223.477 437.574 223.148L437.684 223.039C440.53 221.944 443.157 221.725 444.799 223.805L444.909 223.915C446.003 225.228 446.003 227.308 445.784 229.169V229.279C445.675 230.154 445.347 231.14 445.128 231.796C444.58 233.439 443.705 234.971 442.719 236.504V236.613C442.719 236.613 442.719 236.613 442.61 236.613C440.639 239.459 438.121 241.977 435.713 244.057C435.166 244.495 434.618 244.933 434.071 245.371V245.48H433.962C430.896 247.889 427.722 250.078 424.438 252.049V252.158C424.438 252.158 424.328 252.158 424.109 252.158C422.248 253.253 420.278 254.347 418.307 255.333C415.461 256.756 412.286 258.507 409.55 259.383C409.44 259.493 409.331 259.493 409.221 259.602L409.112 259.383L409.221 259.274C409.331 259.055 409.44 258.836 409.44 258.617C409.112 259.164 408.893 259.602 408.783 259.93L408.674 259.711L408.455 260.259C408.455 259.711 408.236 259.055 407.908 258.288C408.017 258.617 408.017 258.945 408.127 259.274C408.236 259.274 408.236 259.383 408.345 259.493L408.127 259.711C408.017 259.602 407.908 259.493 407.798 259.383C404.404 257.632 400.464 254.457 396.961 251.939C394.552 250.188 392.144 248.217 389.845 246.247C389.626 246.137 389.516 246.137 389.407 246.137V245.918C385.357 242.525 381.635 238.803 378.022 234.971C377.913 234.971 377.803 234.971 377.803 234.971V234.752C377.146 233.986 376.49 233.329 375.833 232.563C372.986 229.279 370.14 225.228 368.17 220.959C368.06 220.959 368.06 220.959 368.06 220.959V220.74C367.075 218.441 366.199 216.142 365.761 213.843C365.761 212.639 365.652 211.325 365.652 210.121Z" fill="white"/>
<path opacity="0.2" d="M200.008 211.106V210.888C200.008 208.37 199.46 205.742 197.709 204.1L197.599 203.991C194.972 201.692 191.469 202.568 187.966 204.648L187.857 204.757C187.09 205.195 186.433 205.742 185.777 206.18C183.478 207.713 180.631 210.778 180.194 211.325L180.084 211.435C180.194 211.216 180.194 211.107 180.303 210.888C180.413 210.888 180.413 210.888 180.522 210.778L180.413 210.559C182.602 203.444 184.244 195.89 184.682 188.446H184.791L184.682 188.227C185.01 182.644 184.791 177.171 183.587 172.135C183.368 171.369 183.149 170.602 182.93 169.836L182.821 169.617C181.179 164.691 178.004 158.779 172.969 157.794H172.75C172.093 157.685 171.326 157.685 170.56 157.794C167.823 158.123 165.525 160.093 163.882 162.392L163.773 162.611C162.131 165.019 160.927 167.756 160.051 170.055C159.066 172.573 158.299 175.2 157.643 177.827L157.424 178.046C157.424 178.046 157.424 178.046 157.533 178.156C155.891 184.724 155.125 191.621 154.577 198.408L154.358 198.627C154.358 198.627 154.468 198.627 154.468 198.736C154.249 202.239 154.14 205.633 154.03 209.027C153.921 211.873 153.921 214.829 153.921 217.675L153.592 217.894C153.592 217.894 153.702 218.003 153.921 218.332C153.921 218.879 153.921 219.426 153.921 219.974C153.592 218.332 153.264 216.799 152.826 215.157C152.826 215.047 152.935 215.047 152.935 215.047L152.826 214.938C151.731 210.121 150.308 205.195 148.338 200.707L148.447 200.597L148.338 200.488C147.571 198.627 146.696 196.875 145.601 195.124C144.725 193.591 143.521 191.73 141.988 190.198L141.879 190.088C140.346 188.556 138.485 187.461 136.515 187.57C135.967 187.57 135.42 187.68 134.982 187.789H134.763C131.26 189.103 129.618 193.701 129.071 197.423V197.642C128.961 198.298 128.961 198.846 128.852 199.393C128.633 203.225 129.071 207.166 130.056 211.106V211.325C130.056 211.325 130.056 211.325 130.165 211.325C131.37 216.58 133.559 221.835 135.858 226.651V226.87H135.967C136.077 226.98 136.077 227.089 136.186 227.308C136.077 227.199 136.077 227.199 135.967 227.089C135.311 226.542 133.121 225.009 131.479 224.243C130.932 223.915 130.384 223.696 129.728 223.477L129.618 223.367C126.881 222.273 124.254 222.054 122.612 224.024L122.503 224.134C121.517 225.447 121.408 227.418 121.627 229.279V229.388C121.736 230.264 122.065 231.14 122.284 231.906C122.831 233.548 123.707 235.081 124.692 236.504V236.613C124.692 236.613 124.692 236.613 124.801 236.613C126.662 239.35 129.18 241.868 131.589 243.838C132.136 244.276 132.683 244.714 133.231 245.152V245.261H133.34C136.296 247.56 139.361 249.75 142.645 251.611V251.72C142.645 251.72 142.755 251.72 142.974 251.72C144.835 252.815 146.696 253.91 148.666 254.895C151.403 256.318 154.577 258.069 157.205 258.836C157.314 258.945 157.424 258.945 157.533 259.055L157.643 258.836L157.533 258.726C157.424 258.507 157.314 258.288 157.314 258.069C157.643 258.617 157.862 259.055 157.971 259.383L158.08 259.164L158.299 259.712C158.299 259.164 158.518 258.507 158.847 257.741C158.737 258.069 158.737 258.398 158.628 258.726C158.518 258.726 158.518 258.836 158.409 258.836L158.628 259.055C158.737 258.945 158.847 258.836 158.956 258.726C162.24 256.975 166.181 253.91 169.575 251.392C171.983 249.64 174.282 247.779 176.581 245.809C176.8 245.699 176.909 245.699 176.909 245.699V245.48C180.85 242.087 184.572 238.584 187.966 234.752C188.075 234.752 188.185 234.752 188.185 234.752V234.533C188.842 233.876 189.499 233.11 190.155 232.453C193.002 229.279 195.738 225.338 197.599 221.178C197.709 221.178 197.709 221.178 197.709 221.178V220.959C198.694 218.769 199.46 216.471 199.898 214.172C199.789 213.515 200.008 212.311 200.008 211.106Z" fill="white"/>
<path d="M325.482 94L330.08 116.442L360.622 134.614L361.279 137.35L355.477 138.226C355.477 138.226 328.766 129.469 321.979 122.791C315.192 116.113 314.425 94 314.425 94H325.482Z" fill="#F7A38F"/>
<path d="M317.6 70.7922C319.133 71.3396 322.964 72.5438 324.716 76.7037C326.905 81.9582 328.985 101.116 329.423 103.962C329.751 106.808 319.571 106.37 319.571 106.37L316.177 76.1563L317.6 70.7922Z" fill="#EDEDED"/>
<path d="M296.91 181.467C295.925 191.319 288.262 242.333 286.072 272.109C286.072 272.656 286.948 273.641 286.948 274.079C286.729 276.707 286.51 279.991 286.401 282.399C286.182 287.106 270.418 285.793 270.418 282.618C270.418 279.772 270.527 276.816 270.527 273.641C270.527 273.094 271.513 272.656 271.513 272.109C272.06 244.632 272.826 205.879 273.483 175.556C273.593 170.411 273.702 162.857 273.812 158.807C273.921 155.304 273.921 155.085 274.031 152.567C274.031 152.567 276.877 153.333 281.256 154.099C291.546 155.96 307.091 155.194 316.505 153.88C318.257 153.662 320.227 153.333 321.869 152.348C323.402 174.899 323.402 209.054 323.402 219.453C323.402 224.927 319.242 256.455 318.038 270.248C317.928 271.124 319.023 272.656 318.914 273.532C318.585 276.597 318.585 279.334 318.147 282.071C317.6 285.574 303.15 285.574 303.259 281.742C303.369 279.334 303.478 276.05 303.588 273.313C303.588 272.547 305.011 271.014 305.011 270.248C305.339 259.082 303.588 228.54 303.478 216.607L298.88 181.248L296.91 181.467Z" fill="#465171"/>
<path opacity="0.5" d="M278.519 171.615C283.993 166.032 285.416 159.463 285.416 159.463C285.416 159.463 292.422 159.901 296.582 159.682V177.417L298.662 181.358C298.662 181.358 299.866 163.404 300.194 159.792C306.872 159.901 313.112 159.354 313.112 159.354C313.112 159.354 314.644 166.032 320.118 171.615C320.118 171.615 314.973 162.966 314.754 159.244C314.754 159.244 319.133 158.588 321.979 156.836L321.76 152.567C321.76 152.567 308.843 155.96 298.881 155.522C288.919 154.975 274.797 152.457 274.797 152.457L273.812 154.318L273.702 157.055C273.702 157.055 277.753 159.135 283.007 159.463C283.117 159.354 282.898 165.484 278.519 171.615Z" fill="#C1C1C1"/>
<path d="M317.6 70.7921C317.6 70.7921 320.993 132.643 323.183 145.123C323.183 145.78 322.307 146.546 322.307 147.093C322.198 149.83 322.088 151.691 321.65 152.348C319.023 157.493 277.752 156.07 273.812 152.567C273.374 152.238 273.264 150.377 273.374 147.531C273.374 146.984 272.607 146.327 272.607 145.78C272.936 138.554 274.906 124.871 275.235 118.412C275.782 103.743 280.489 70.4637 280.489 70.4637C280.489 70.4637 294.502 67.3985 308.842 68.9311C311.36 69.15 314.425 69.5879 317.6 70.7921Z" fill="#EDEDED"/>
<path d="M276.22 147.86C276.22 147.86 310.484 150.377 322.964 145.67L322.198 149.173C322.198 149.173 309.499 152.457 276.22 147.86Z" fill="#ADC6D8"/>
<path opacity="0.5" d="M304.792 270.248C305.996 272.875 317.6 272.437 317.819 270.248C317.819 270.248 318.804 273.204 318.695 273.532C318.695 273.97 318.147 280.757 318.147 280.757C318.147 280.757 304.901 283.932 304.244 283.494C303.588 283.056 302.931 283.932 303.04 282.18C303.15 280.429 303.369 274.189 303.369 273.422C303.369 272.547 304.792 270.686 304.792 270.248Z" fill="#C7DAEA"/>
<path d="M302.931 284.369C302.931 285.902 302.931 284.369 303.04 285.464C303.15 286.23 302.274 290.938 301.727 293.784C301.508 295.098 301.946 296.083 302.931 296.083C307.638 296.411 320.337 297.287 323.402 297.396C327.014 297.506 333.802 297.287 334.458 295.864C335.444 293.784 334.896 289.843 327.781 287.544C324.168 286.34 320.008 283.165 320.008 283.165C320.008 283.165 319.132 276.378 316.396 276.925C313.331 277.473 312.564 282.18 308.514 281.742C304.025 281.195 302.931 281.742 302.931 284.369Z" fill="#001D39"/>
<path d="M320.008 294.332C318.147 295.426 315.739 295.864 312.783 293.018C309.828 290.172 302.055 291.923 302.165 290.938C301.946 291.923 301.836 292.799 301.727 293.675C301.508 294.988 301.946 295.974 302.931 295.974C307.638 296.302 320.337 297.178 323.402 297.287C327.014 297.397 333.802 297.178 334.458 295.755C334.896 294.879 335.006 293.675 334.568 292.471C334.568 294.003 321.76 293.237 320.008 294.332Z" fill="#EDEDED" stroke="#EDEDED" stroke-width="0.5" stroke-miterlimit="10" stroke-linecap="round" stroke-linejoin="round"/>
<path opacity="0.5" d="M271.294 272.437C271.184 274.627 285.744 275.174 285.963 272.437C285.963 272.437 286.839 273.86 286.729 274.298C286.729 274.736 286.291 281.195 286.182 282.618C286.072 284.041 284.978 284.698 283.007 285.355C280.927 286.012 273.483 284.917 271.951 284.479C270.528 284.041 270.199 283.494 270.199 282.071C270.199 280.757 270.309 274.846 270.309 273.86C270.418 272.766 271.294 273.313 271.294 272.437Z" fill="#C7DAEA"/>
<path d="M283.554 282.29C283.664 286.888 287.824 288.42 287.824 291.266C287.824 291.923 287.933 294.551 287.605 295.098C286.401 296.74 283.664 296.959 281.365 296.959C278.081 296.959 274.687 296.74 272.06 295.755C267.791 294.113 272.06 286.121 272.279 282.29C272.607 279.006 283.445 277.802 283.554 282.29Z" fill="#001D39"/>
<path d="M270.309 291.814C270.309 291.814 274.031 293.784 280.708 293.784C287.824 293.784 287.933 291.266 287.933 291.266V296.74C287.933 297.616 284.759 298.71 279.614 298.71C275.892 298.71 273.264 297.944 271.622 297.068C270.199 296.302 270.199 295.207 270.199 295.207L270.309 291.814Z" fill="#EDEDED" stroke="#EDEDED" stroke-width="0.5" stroke-miterlimit="10" stroke-linecap="round" stroke-linejoin="round"/>
<path d="M319.899 283.056C319.899 283.056 317.819 284.041 316.396 286.669" stroke="#EDEDED" stroke-width="0.5" stroke-miterlimit="10" stroke-linecap="round"/>
<path d="M319.789 287.544C319.789 287.544 321.322 285.026 322.417 284.917" stroke="#EDEDED" stroke-width="0.5" stroke-miterlimit="10" stroke-linecap="round"/>
<path d="M323.402 287.654C323.402 287.654 324.387 286.34 324.825 286.231" stroke="#EDEDED" stroke-width="0.5" stroke-miterlimit="10" stroke-linecap="round"/>
<path d="M311.47 284.698C311.47 284.698 310.484 282.509 308.405 281.742C304.245 280.21 302.931 281.742 302.931 284.37C302.931 285.902 302.712 284.479 302.822 285.574C303.15 283.932 308.842 284.37 311.47 284.698Z" fill="#EDEDED" stroke="#EDEDED" stroke-width="0.5" stroke-miterlimit="10" stroke-linecap="round" stroke-linejoin="round"/>
<path d="M274.578 284.151C276.33 283.165 280.818 283.056 282.46 284.151" stroke="#EDEDED" stroke-width="0.5" stroke-miterlimit="10" stroke-linecap="round"/>
<path d="M275.563 285.683C275.563 285.683 278.409 284.698 281.584 285.574" stroke="#EDEDED" stroke-width="0.5" stroke-miterlimit="10" stroke-linecap="round"/>
<path d="M276.439 287.435C277.534 287.107 280.052 286.778 281.694 287.325" stroke="#EDEDED" stroke-width="0.5" stroke-miterlimit="10" stroke-linecap="round"/>
<path d="M287.495 69.2596C287.495 69.2596 291.217 76.7036 301.727 76.0468C311.579 75.39 313.112 69.588 313.112 69.588L311.032 69.3691L289.356 69.1501L287.495 69.2596Z" fill="#ADC6D8"/>
<path d="M294.283 51.8538C294.392 57.5462 293.188 66.7418 292.531 67.727C292.093 68.3838 290.78 69.0407 289.685 69.1501C290.232 70.6827 293.845 72.9816 296.801 73.6384C302.493 74.9521 308.514 72.8721 311.579 69.2596L306.872 68.0554C306.872 68.0554 306.981 66.1944 307.091 63.5671C307.2 59.6262 305.449 52.1822 305.449 52.1822L294.283 51.8538Z" fill="#F7A38F"/>
<path d="M306.981 63.8956C304.901 63.8956 298.333 58.4221 297.895 57.1085C297.567 55.7948 296.472 54.2622 296.472 54.2622C296.472 54.2622 296.144 60.502 299.209 63.6767C303.369 67.9461 306.762 64.6619 306.762 64.6619C306.762 64.6619 306.872 64.6619 306.981 63.8956Z" fill="#E58D7F"/>
<path d="M291.546 45.0667C291.765 51.5255 297.129 56.6706 303.697 56.4516C310.156 56.2327 315.411 50.2118 315.301 43.6436C315.301 42.2204 315.301 39.9216 314.863 38.7174C311.907 31.2734 300.194 29.5218 294.064 36.1996C291.655 38.7174 291.436 42.2204 291.546 45.0667Z" fill="#F7A38F"/>
<path d="M314.973 46.3804C314.754 52.6202 311.689 63.0199 306.215 64.1146C303.588 64.662 297.238 60.2832 296.801 56.0138C296.363 51.7444 295.815 46.9277 295.815 46.9277" fill="#F7A38F"/>
<path d="M299.099 39.1552C297.895 41.3446 297.567 48.5697 297.786 51.197C298.005 52.0728 296.253 51.4159 296.253 50.7591C296.144 50.1023 296.034 47.1466 294.173 46.7087C292.422 46.2708 292.86 53.1675 295.158 52.0728C293.078 49.0076 289.138 47.0371 291.217 39.5931L295.049 38.9363L299.099 39.1552Z" fill="#3E3E3E"/>
<path d="M298.004 44.3002C298.771 41.0161 299.756 37.4036 302.164 38.8267C304.573 40.1404 307.528 41.1256 311.798 40.3593C312.783 40.1404 314.097 39.812 314.097 39.812L315.191 44.4097V38.0604L298.99 36.5278L298.004 44.3002Z" fill="#E58D7F"/>
<path d="M294.283 58.7504C290.451 53.6053 286.62 45.176 287.824 39.9214C288.7 35.7616 291.655 35.871 291.655 35.871C291.655 35.871 291.984 30.3975 298.661 27.4418C309.827 22.5156 327.562 34.3384 316.834 41.0162L312.345 34.6669L302.493 33.9006L296.691 38.0604C296.691 38.0604 293.297 41.3446 293.297 41.8919C293.297 42.4393 294.392 55.2474 294.392 55.2474L294.283 58.7504Z" fill="#3E3E3E"/>
<path d="M315.192 45.5044C315.192 45.5044 314.754 38.8267 314.206 39.1551C314.206 39.1551 307.529 41.2351 302.712 38.0604C299.866 36.1994 298.114 39.7025 298.005 43.5339C296.91 42.6582 291.984 40.7972 291.108 39.8119C291.765 35.9805 294.064 33.9005 297.238 32.4774C301.179 30.7259 307.2 30.7259 311.141 32.2584C317.928 34.7763 317.709 42.2203 315.192 45.5044Z" fill="#3E3E3E"/>
<path d="M291.327 50.1023C291.655 52.1823 293.407 54.8096 294.939 53.9338C296.144 53.277 295.377 46.9277 293.735 46.7087C291.874 46.3803 290.998 48.0224 291.327 50.1023Z" fill="#E58D7F"/>
<path d="M319.789 106.37L318.476 85.0234L322.745 106.261L319.789 106.37Z" fill="#ADC6D8"/>
<path d="M287.386 83.4907C287.386 83.4907 293.845 99.2545 292.203 101.882C291.546 102.867 290.232 103.414 288.919 103.852C288.59 103.962 288.043 115.566 287.715 115.675C287.386 115.785 287.277 104.29 286.948 104.29C285.416 104.509 284.102 104.509 284.102 104.509L287.386 83.4907Z" fill="#ADC6D8"/>
<path d="M286.291 94L287.714 114.581L312.674 131.22L310.375 136.256C310.375 136.256 281.803 125.637 276.22 117.974C275.235 111.515 273.483 96.6273 273.483 96.6273L286.291 94Z" fill="#F7A38F"/>
<path d="M280.38 70.3543C281.913 70.9017 283.774 72.5437 285.416 76.7036C287.605 81.9582 289.685 96.9557 290.123 99.8019C290.451 102.648 272.498 102.32 272.608 100.349C272.608 98.4883 272.936 79.9877 275.016 74.9521C277.205 70.1354 280.38 70.3543 280.38 70.3543Z" fill="#EDEDED"/>
<path d="M326.686 105.823C326.686 105.823 324.935 107.793 321.431 108.122L321.869 120.492C321.869 120.492 325.153 125.746 329.751 127.826C329.751 127.826 325.044 125.965 320.665 121.368L319.789 106.37C319.789 106.37 321.541 106.699 326.686 105.823Z" fill="#E58D7F"/>
<path d="M286.948 102.539C282.46 104.181 277.643 104.181 274.359 103.196L274.14 101.225C274.14 101.225 278.957 102.539 286.948 101.444V102.539Z" fill="#E58D7F"/>
<path d="M218.201 301.447C218.201 312.175 226.958 320.933 237.686 320.933C248.414 320.933 257.172 312.175 257.172 301.447C257.172 290.719 248.414 281.961 237.686 281.961C226.958 281.961 218.201 290.61 218.201 301.447Z" fill="#3E3E3E"/>
<path d="M226.082 301.447C226.082 307.906 231.227 313.051 237.686 313.051C244.145 313.051 249.29 307.906 249.29 301.447C249.29 294.988 244.145 289.843 237.686 289.843C231.337 289.843 226.082 294.988 226.082 301.447Z" fill="#58A066"/>
<path d="M237.686 291.157C243.816 291.157 248.852 295.974 249.29 302.104C248.962 308.234 243.926 313.051 237.686 313.051C231.556 313.051 226.52 308.234 226.082 302.104C226.52 295.974 231.556 291.157 237.686 291.157Z" fill="#EDEDED"/>
<path d="M360.075 301.447C360.075 312.175 368.832 320.933 379.56 320.823C390.289 320.823 399.046 312.066 398.937 301.338C398.937 290.609 390.179 281.852 379.451 281.961C368.723 281.961 360.075 290.719 360.075 301.447Z" fill="#3E3E3E"/>
<path d="M367.957 301.447C367.957 307.906 373.211 313.051 379.56 313.051C386.019 313.051 391.164 307.796 391.164 301.447C391.164 294.988 385.91 289.843 379.56 289.843C373.102 289.843 367.957 294.988 367.957 301.447Z" fill="#C1C1C1"/>
<path d="M379.56 291.157C385.691 291.157 390.836 295.974 391.164 301.995C390.836 308.125 385.8 312.942 379.67 312.942C373.54 312.942 368.394 308.125 368.066 302.104C368.394 295.974 373.43 291.157 379.56 291.157Z" fill="#EDEDED"/>
<path d="M375.182 302.432C375.182 304.841 377.152 306.921 379.67 306.921C382.078 306.921 384.158 304.95 384.158 302.432C384.158 300.024 382.188 297.944 379.67 297.944C377.152 298.054 375.182 300.024 375.182 302.432Z" fill="#58A066"/>
<path d="M233.308 302.432C233.308 304.841 235.278 306.921 237.796 306.921C240.204 306.921 242.284 304.95 242.284 302.432C242.284 300.024 240.314 297.944 237.796 297.944C235.278 298.054 233.308 300.024 233.308 302.432Z" fill="#52C700"/>
<path d="M366.424 225.474C366.862 229.963 366.862 234.123 369.16 238.173C373.539 246.164 389.194 249.886 384.267 261.928C383.173 264.665 381.202 267.073 379.451 269.482C377.042 272.875 376.386 275.94 377.699 280.21" stroke="#102B51" stroke-width="0.5" stroke-miterlimit="10"/>
<path d="M367.518 229.306C368.394 234.779 370.365 240.034 373.539 244.632C376.495 249.011 380.545 252.514 381.312 258.097C381.75 261.49 380.764 264.665 379.341 267.73C377.699 271.233 377.261 274.189 378.028 277.911" stroke="#102B51" stroke-width="0.5" stroke-miterlimit="10"/>
<path d="M264.725 309.001C265.93 309.001 343.325 309.001 343.325 309.001L344.201 302.651H261.332C261.332 302.651 264.178 309.001 264.725 309.001Z" fill="#58A066"/>
<path d="M233.308 301.447C233.308 303.855 235.278 305.935 237.796 305.935C240.204 305.935 242.284 303.965 242.284 301.447C242.284 298.929 240.314 296.959 237.796 296.959C235.278 296.959 233.308 298.929 233.308 301.447Z" fill="#102B51"/>
<path d="M256.953 304.622C258.486 304.622 350.551 304.622 350.551 304.622L351.645 296.302H252.465C252.465 296.302 256.077 304.622 256.953 304.622Z" fill="#3E3E3E"/>
<path d="M341.793 301.447H350.332C350.332 301.447 351.317 297.725 351.645 295.864C354.054 283.713 364.453 274.189 377.261 273.313L376.605 263.899C357.119 265.322 341.793 281.742 341.793 301.447Z" fill="#3E3E3E"/>
<path d="M237.686 277.692C251.589 278.13 259.252 290.609 261.332 301.338C261.551 302.432 253.669 298.601 252.465 296.411C248.852 289.843 243.598 286.887 237.686 286.887C232.322 286.887 227.505 289.515 224.659 293.565L217.215 288.42C217.215 288.42 216.23 286.669 216.887 286.34C221.485 284.151 228.162 277.364 237.686 277.692Z" fill="#97FF13"/>
<path d="M262.865 305.826H343.763L343.982 304.622H262.208L262.865 305.826Z" fill="#58A066"/>
<path d="M255.421 302.432H350.879L350.551 304.622H256.953L255.421 302.432Z" fill="#58A066"/>
<path d="M372.554 271.671V273.97C362.045 276.597 353.835 285.136 351.646 295.755C351.317 297.506 350.77 302.323 350.77 302.323H348.361C349.456 291.376 352.302 284.151 357.995 279.115C364.563 273.423 368.942 272.437 372.554 271.671Z" fill="#58A066"/>
<path d="M345.953 140.854H351.426L381.75 295.536H376.386L345.953 140.854Z" fill="#97FF13"/>
<path d="M375.182 301.447C375.182 303.855 377.152 305.935 379.67 305.935C382.078 305.935 384.158 303.965 384.158 301.447C384.158 299.039 382.188 296.959 379.67 296.959C377.152 296.959 375.182 298.929 375.182 301.447Z" fill="#97FF13"/>
<path d="M365.986 251.419C365.877 250.872 366.314 250.324 366.862 250.324H373.54C374.087 250.324 374.744 250.762 374.853 251.419L383.83 301.009C383.939 301.557 383.501 302.104 382.954 302.104H376.276C375.619 302.104 375.072 301.666 374.963 301.009L365.986 251.419Z" fill="#52C700"/>
<path d="M355.148 195.589C355.039 195.041 355.586 194.494 356.134 194.494H362.811C363.468 194.494 363.906 194.932 364.016 195.589L364.125 196.465C364.235 197.012 363.687 197.559 363.14 197.559H356.462C355.805 197.559 355.367 197.121 355.258 196.465L355.148 195.589Z" fill="#52C700"/>
<path d="M357.447 199.092H362.811L362.483 197.45H357.119L357.447 199.092Z" fill="#C1C1C1"/>
<path d="M351.645 143.59C351.645 143.59 348.471 145.999 346.281 143.59L346.062 141.401L351.536 142.715L351.645 143.59Z" fill="#3E3E3E"/>
<path d="M345.843 140.963C345.843 142.495 347.048 143.7 348.58 143.7C350.113 143.7 351.317 142.495 351.317 140.963C351.317 139.43 350.113 138.226 348.58 138.226C347.048 138.226 345.843 139.43 345.843 140.963Z" fill="#102B51"/>
<path d="M348.471 143.59L356.024 141.401V136.803L347.704 138.336L348.471 143.59Z" fill="#102B51"/>
<path d="M261.332 302.651H237.686L237.139 299.258L257.172 295.426L261.332 302.651Z" fill="#3E3E3E"/>
<path d="M235.497 301.338C235.497 302.542 236.482 303.527 237.686 303.527C238.89 303.527 239.875 302.542 239.875 301.338C239.875 300.133 238.89 299.148 237.686 299.148C236.372 299.258 235.497 300.243 235.497 301.338Z" fill="#58A066"/>
<path d="M326.358 136.256H358.214V141.51H326.358V136.256Z" fill="#3E3E3E"/>
<path d="M322.307 138.664C322.307 140.525 323.73 141.948 325.591 141.948C327.452 141.948 328.875 140.525 328.875 138.664C328.875 136.803 327.452 135.38 325.591 135.38C323.84 135.38 322.307 136.912 322.307 138.664Z" fill="#52C700"/>
<path d="M314.863 138.664C314.863 140.525 316.395 141.948 318.147 141.948C320.008 141.948 321.431 140.416 321.431 138.664C321.431 136.803 319.899 135.38 318.147 135.38C316.395 135.38 314.863 136.912 314.863 138.664Z" fill="#52C700"/>
<path d="M318.147 135.38H325.591V141.948H318.147V135.38Z" fill="#80A4DD"/>
<path d="M365.658 138.664C365.658 140.525 367.081 141.948 368.942 141.948C370.803 141.948 372.226 140.525 372.226 138.664C372.226 136.803 370.803 135.38 368.942 135.38C367.081 135.38 365.658 136.912 365.658 138.664Z" fill="#80A4DD"/>
<path d="M356.462 138.664C356.462 140.525 357.995 141.948 359.746 141.948C361.607 141.948 363.03 140.416 363.03 138.664C363.03 136.803 361.498 135.38 359.746 135.38C357.885 135.38 356.462 136.912 356.462 138.664Z" fill="#80A4DD"/>
<path d="M359.746 135.38H367.19V141.948H359.746V135.38Z" fill="#52C700"/>
<path d="M357.119 138.883C357.119 140.306 358.323 141.51 359.746 141.51C361.169 141.51 362.374 140.306 362.374 138.883C362.374 137.46 361.169 136.256 359.746 136.256C358.323 136.256 357.119 137.351 357.119 138.883Z" fill="#3E3E3E"/>
<path d="M355.039 136.256H359.746V141.51H355.039V136.256Z" fill="#3E3E3E"/>
<path d="M312.674 131.22C314.097 132.205 325.701 133.409 327.014 137.131C328.328 140.853 327.015 142.605 325.591 142.933C325.044 143.043 323.949 142.714 323.73 142.495C323.73 142.495 322.745 143.262 321.431 142.605C321.431 142.605 320.556 143.152 319.68 142.605C319.68 142.605 318.476 143.043 318.038 142.386C317.162 140.963 318.695 139.43 318.804 138.883C318.914 138.226 317.053 136.365 315.411 137.131C315.082 138.007 315.082 138.883 315.082 138.883C315.082 138.883 311.579 136.693 310.265 136.256C309.061 135.708 312.674 131.22 312.674 131.22Z" fill="#F7A38F"/>
<path d="M358.542 134.942C361.388 134.285 371.897 133.41 373.101 137.132C374.415 140.854 373.101 142.605 371.678 142.933C371.131 143.043 370.036 142.715 369.817 142.496C369.817 142.496 368.832 143.262 367.518 142.605C367.518 142.605 366.643 143.152 365.767 142.605C365.767 142.605 364.563 143.043 364.125 142.386C363.249 140.963 364.782 139.43 364.891 138.883C365.001 138.226 364.125 136.146 361.498 136.146C359.527 136.146 356.352 136.146 356.352 136.146C355.148 135.708 358.542 134.942 358.542 134.942Z" fill="#F7A38F"/>
</svg>
