<svg width="24" height="26" viewBox="0 0 24 26" fill="none" xmlns="http://www.w3.org/2000/svg">
<path d="M22.5416 19.0487L19.3043 15.5171C18.1482 14.2559 16.1827 14.7604 15.7202 16.4C15.3734 17.5352 14.2172 18.1658 13.1767 17.9135C10.8643 17.2829 7.74271 14.0036 7.16463 11.355C6.81778 10.2198 7.51148 8.95852 8.55202 8.58019C10.055 8.07568 10.5175 5.93153 9.36134 4.67027L6.12408 1.13873C5.19915 0.255841 3.81176 0.255841 3.00244 1.13873L0.805737 3.53513C-1.39097 6.05766 1.03697 12.7424 6.47093 18.6703C11.9049 24.5982 18.0325 27.3731 20.3449 24.8505L22.5416 22.4541C23.3509 21.4451 23.3509 19.9316 22.5416 19.0487Z" fill="white"/>
</svg>
