<svg width="123" height="123" viewBox="0 0 123 123" fill="none" xmlns="http://www.w3.org/2000/svg">
<circle cx="61.5" cy="61.5" r="61.5" fill="#52C600" fill-opacity="0.12"/>
<circle cx="62.1474" cy="62.1474" r="38.8421" fill="url(#paint0_linear)"/>
<path d="M72.7703 67.2377C71.3679 65.8532 69.6172 65.8532 68.2238 67.2377C67.1609 68.2917 66.0979 69.3457 65.0529 70.4175C64.767 70.7123 64.5259 70.7748 64.1775 70.5783C63.4897 70.2032 62.7573 69.8995 62.0963 69.4886C59.0147 67.5503 56.4333 65.0582 54.1467 62.2535C53.0123 60.8601 52.003 59.3684 51.2973 57.6892C51.1544 57.3498 51.1812 57.1265 51.4581 56.8496C52.521 55.8224 53.5572 54.7684 54.6022 53.7144C56.0582 52.2495 56.0582 50.5345 54.5933 49.0607C53.7626 48.2211 52.9319 47.3993 52.1012 46.5597C51.2437 45.7022 50.3952 44.8358 49.5287 43.9872C48.1264 42.6206 46.3757 42.6206 44.9823 43.9962C43.9104 45.0502 42.8832 46.131 41.7935 47.1671C40.7841 48.1228 40.275 49.2929 40.1678 50.6596C39.9981 52.8837 40.543 54.9827 41.3111 57.0282C42.8832 61.2621 45.277 65.0225 48.18 68.4703C52.1012 73.1329 56.7817 76.8219 62.2571 79.4837C64.7224 80.6806 67.277 81.6006 70.0549 81.7525C71.9664 81.8597 73.6278 81.3773 74.9587 79.8857C75.8697 78.8674 76.8969 77.9384 77.8616 76.9648C79.2908 75.5178 79.2997 73.7671 77.8795 72.338C76.1824 70.6319 74.4763 68.9348 72.7703 67.2377Z" fill="white"/>
<path d="M70.6639 58.4979C70.9497 59.3756 71.8013 59.9927 72.7111 59.8374C73.6217 59.6819 74.2433 58.8134 73.9859 57.9261C73.295 55.5444 72.0163 53.3874 70.2424 51.6062C68.3463 49.7101 66.0358 48.3929 63.4871 47.7402C62.5918 47.5109 61.7422 48.1587 61.6139 49.074C61.4857 49.9892 62.1289 50.8229 63.0161 51.0817C64.8455 51.6155 66.507 52.5959 67.8843 53.9732C69.1666 55.2555 70.1104 56.7982 70.6639 58.4979Z" fill="white"/>
<path d="M76.2185 45.7913C72.8107 42.3834 68.5932 40.1004 63.932 39.1283C63.0276 38.9397 62.1804 39.5834 62.0521 40.4984C61.9238 41.4138 62.5641 42.2531 63.4668 42.4521C67.4055 43.3202 70.9711 45.2768 73.8604 48.1583C76.5811 50.8791 78.4854 54.2258 79.4188 57.9134C79.6451 58.8076 80.5015 59.421 81.4107 59.2658C82.3214 59.1103 82.9387 58.2432 82.7206 57.3455C81.6585 52.9737 79.4303 49.011 76.2185 45.7913Z" fill="white"/>
<defs>
<linearGradient id="paint0_linear" x1="23.3053" y1="86.7474" x2="123" y2="62.1474" gradientUnits="userSpaceOnUse">
<stop stop-color="#52C600"/>
<stop offset="1" stop-color="#97FF13"/>
</linearGradient>
</defs>
</svg>
